<?xml version="1.0" encoding="UTF-8"?>
<!DOCTYPE svg
PUBLIC "-//W3C//DTD SVG 1.1//EN"
     "http://www.w3.org/Graphics/SVG/1.1/DTD/svg11.dtd">
<svg version="1.1" xmlns="http://www.w3.org/2000/svg" xmlns:xlink="http://www.w3.org/1999/xlink" width="3300" height="2200">
<!--glyph: "uni100000.medium", point size: 100.0, font version: "19.0d6e1", template writer version: "123"-->
<style>.SFSymbolsPreviewWireframe {fill:none;opacity:1.0;stroke:black;stroke-width:0.5}
</style>
<g id="Notes">
<rect height="2200" id="artboard" style="fill:white;opacity:1" width="3300" x="0" y="0"/>
<line style="fill:none;stroke:black;opacity:1;stroke-width:0.5;" x1="263" x2="3036" y1="292" y2="292"/>
<text style="stroke:none;fill:black;font-family:sans-serif;font-size:13;font-weight:bold;" transform="matrix(1 0 0 1 263 322)">Weight/Scale Variations</text>
<text style="stroke:none;fill:black;font-family:sans-serif;font-size:13;text-anchor:middle;" transform="matrix(1 0 0 1 559.711 322)">Ultralight</text>
<text style="stroke:none;fill:black;font-family:sans-serif;font-size:13;text-anchor:middle;" transform="matrix(1 0 0 1 856.422 322)">Thin</text>
<text style="stroke:none;fill:black;font-family:sans-serif;font-size:13;text-anchor:middle;" transform="matrix(1 0 0 1 1153.13 322)">Light</text>
<text style="stroke:none;fill:black;font-family:sans-serif;font-size:13;text-anchor:middle;" transform="matrix(1 0 0 1 1449.84 322)">Regular</text>
<text style="stroke:none;fill:black;font-family:sans-serif;font-size:13;text-anchor:middle;" transform="matrix(1 0 0 1 1746.56 322)">Medium</text>
<text style="stroke:none;fill:black;font-family:sans-serif;font-size:13;text-anchor:middle;" transform="matrix(1 0 0 1 2043.27 322)">Semibold</text>
<text style="stroke:none;fill:black;font-family:sans-serif;font-size:13;text-anchor:middle;" transform="matrix(1 0 0 1 2339.98 322)">Bold</text>
<text style="stroke:none;fill:black;font-family:sans-serif;font-size:13;text-anchor:middle;" transform="matrix(1 0 0 1 2636.69 322)">Heavy</text>
<text style="stroke:none;fill:black;font-family:sans-serif;font-size:13;text-anchor:middle;" transform="matrix(1 0 0 1 2933.4 322)">Black</text>
<line style="fill:none;stroke:black;opacity:1;stroke-width:0.5;" x1="263" x2="3036" y1="1903" y2="1903"/>
<g transform="matrix(0.2 0 0 0.2 263 1933)">
 <path d="m46.2402 4.15039c21.5332 0 39.4531-17.8711 39.4531-39.4043s-17.9688-39.4043-39.502-39.4043c-21.4844 0-39.3555 17.8711-39.3555 39.4043s17.9199 39.4043 39.4043 39.4043Zm0-7.42188c-17.7246 0-31.8848-14.209-31.8848-31.9824s14.1113-31.9824 31.8359-31.9824c17.7734 0 32.0312 14.209 32.0312 31.9824s-14.209 31.9824-31.9824 31.9824Zm-17.9688-31.9824c0 2.14844 1.51367 3.61328 3.75977 3.61328h10.498v10.5957c0 2.19727 1.46484 3.71094 3.61328 3.71094 2.24609 0 3.71094-1.51367 3.71094-3.71094v-10.5957h10.5957c2.19727 0 3.71094-1.46484 3.71094-3.61328 0-2.19727-1.51367-3.71094-3.71094-3.71094h-10.5957v-10.5469c0-2.24609-1.46484-3.75977-3.71094-3.75977-2.14844 0-3.61328 1.51367-3.61328 3.75977v10.5469h-10.498c-2.24609 0-3.75977 1.51367-3.75977 3.71094Z"/>
</g>
<g transform="matrix(0.2 0 0 0.2 281.506 1933)">
 <path d="m58.5449 14.5508c27.2461 0 49.8047-22.6074 49.8047-49.8047 0-27.2461-22.6074-49.8047-49.8535-49.8047-27.1973 0-49.7559 22.5586-49.7559 49.8047 0 27.1973 22.6074 49.8047 49.8047 49.8047Zm0-8.30078c-23.0469 0-41.4551-18.457-41.4551-41.5039s18.3594-41.5039 41.4062-41.5039 41.5527 18.457 41.5527 41.5039-18.457 41.5039-41.5039 41.5039Zm-22.6562-41.5039c0 2.39258 1.66016 4.00391 4.15039 4.00391h14.3555v14.4043c0 2.44141 1.66016 4.15039 4.05273 4.15039 2.44141 0 4.15039-1.66016 4.15039-4.15039v-14.4043h14.4043c2.44141 0 4.15039-1.61133 4.15039-4.00391 0-2.44141-1.70898-4.15039-4.15039-4.15039h-14.4043v-14.3555c0-2.49023-1.70898-4.19922-4.15039-4.19922-2.39258 0-4.05273 1.70898-4.05273 4.19922v14.3555h-14.3555c-2.49023 0-4.15039 1.70898-4.15039 4.15039Z"/>
</g>
<g transform="matrix(0.2 0 0 0.2 304.924 1933)">
 <path d="m74.8535 28.3203c34.8145 0 63.623-28.8086 63.623-63.5742 0-34.8145-28.8574-63.623-63.6719-63.623-34.7656 0-63.5254 28.8086-63.5254 63.623 0 34.7656 28.8086 63.5742 63.5742 63.5742Zm0-9.08203c-30.1758 0-54.4434-24.3164-54.4434-54.4922 0-30.2246 24.2188-54.4922 54.3945-54.4922 30.2246 0 54.541 24.2676 54.541 54.4922 0 30.1758-24.2676 54.4922-54.4922 54.4922Zm-28.8574-54.4922c0 2.58789 1.85547 4.39453 4.58984 4.39453h19.7266v19.7754c0 2.68555 1.85547 4.58984 4.44336 4.58984 2.68555 0 4.54102-1.85547 4.54102-4.58984v-19.7754h19.7754c2.68555 0 4.58984-1.80664 4.58984-4.39453 0-2.73438-1.85547-4.58984-4.58984-4.58984h-19.7754v-19.7266c0-2.73438-1.85547-4.63867-4.54102-4.63867-2.58789 0-4.44336 1.9043-4.44336 4.63867v19.7266h-19.7266c-2.73438 0-4.58984 1.85547-4.58984 4.58984Z"/>
</g>
<text style="stroke:none;fill:black;font-family:sans-serif;font-size:13;font-weight:bold;" transform="matrix(1 0 0 1 263 1953)">Design Variations</text>
<text style="stroke:none;fill:black;font-family:sans-serif;font-size:13;" transform="matrix(1 0 0 1 263 1971)">Symbols are supported in up to nine weights and three scales.</text>
<text style="stroke:none;fill:black;font-family:sans-serif;font-size:13;" transform="matrix(1 0 0 1 263 1989)">For optimal layout with text and other symbols, vertically align</text>
<text style="stroke:none;fill:black;font-family:sans-serif;font-size:13;" transform="matrix(1 0 0 1 263 2007)">symbols with the adjacent text.</text>
<line style="fill:none;stroke:#00AEEF;stroke-width:0.5;opacity:1.0;" x1="776" x2="776" y1="1919" y2="1933"/>
<g transform="matrix(0.2 0 0 0.2 776 1933)">
 <path d="m16.5527 0.78125c2.58789 0 3.85742-0.976562 4.78516-3.71094l6.29883-17.2363h28.8086l6.29883 17.2363c0.927734 2.73438 2.19727 3.71094 4.73633 3.71094 2.58789 0 4.24805-1.5625 4.24805-4.00391 0-0.830078-0.146484-1.61133-0.537109-2.63672l-22.9004-60.9863c-1.12305-2.97852-3.125-4.49219-6.25-4.49219-3.02734 0-5.07812 1.46484-6.15234 4.44336l-22.9004 61.084c-0.390625 1.02539-0.537109 1.80664-0.537109 2.63672 0 2.44141 1.5625 3.95508 4.10156 3.95508Zm13.4766-28.3691 11.8652-32.8613h0.244141l11.8652 32.8613Z"/>
</g>
<line style="fill:none;stroke:#00AEEF;stroke-width:0.5;opacity:1.0;" x1="792.836" x2="792.836" y1="1919" y2="1933"/>
<text style="stroke:none;fill:black;font-family:sans-serif;font-size:13;font-weight:bold;" transform="matrix(1 0 0 1 776 1953)">Margins</text>
<text style="stroke:none;fill:black;font-family:sans-serif;font-size:13;" transform="matrix(1 0 0 1 776 1971)">Leading and trailing margins on the left and right side of each symbol</text>
<text style="stroke:none;fill:black;font-family:sans-serif;font-size:13;" transform="matrix(1 0 0 1 776 1989)">can be adjusted by modifying the x-location of the margin guidelines.</text>
<text style="stroke:none;fill:black;font-family:sans-serif;font-size:13;" transform="matrix(1 0 0 1 776 2007)">Modifications are automatically applied proportionally to all</text>
<text style="stroke:none;fill:black;font-family:sans-serif;font-size:13;" transform="matrix(1 0 0 1 776 2025)">scales and weights.</text>
<g transform="matrix(0.2 0 0 0.2 1289 1933)">
 <path d="m14.209 9.32617 8.49609 8.54492c4.29688 4.3457 9.22852 4.05273 13.8672-1.07422l53.4668-58.9355-4.83398-4.88281-53.0762 58.3984c-1.75781 2.00195-3.41797 2.49023-5.76172 0.146484l-5.85938-5.81055c-2.34375-2.29492-1.80664-4.00391 0.195312-5.81055l57.373-54.0039-4.88281-4.83398-57.959 54.4434c-4.93164 4.58984-5.32227 9.47266-1.02539 13.8184Zm32.0801-90.9668c-2.09961 2.05078-2.24609 4.93164-1.07422 6.88477 1.17188 1.80664 3.4668 2.97852 6.68945 2.14844 7.32422-1.70898 14.9414-2.00195 22.0703 2.68555l-2.92969 7.27539c-1.70898 4.15039-0.830078 7.08008 1.85547 9.81445l11.4746 11.5723c2.44141 2.44141 4.49219 2.53906 7.32422 2.05078l5.32227-0.976562 3.32031 3.36914-0.195312 2.7832c-0.195312 2.49023 0.439453 4.39453 2.88086 6.78711l3.80859 3.71094c2.39258 2.39258 5.46875 2.53906 7.8125 0.195312l14.5508-14.5996c2.34375-2.34375 2.24609-5.32227-0.146484-7.71484l-3.85742-3.80859c-2.39258-2.39258-4.24805-3.17383-6.64062-2.97852l-2.88086 0.244141-3.22266-3.17383 1.2207-5.61523c0.634766-2.83203-0.146484-5.0293-3.07617-7.95898l-10.9863-10.9375c-16.6992-16.6016-38.8672-16.2109-53.3203-1.75781Zm7.4707 1.85547c12.1582-8.88672 28.6133-7.37305 39.7461 3.75977l12.1582 12.0605c1.17188 1.17188 1.36719 2.09961 1.02539 3.80859l-1.61133 7.42188 7.51953 7.42188 4.93164-0.292969c1.26953-0.0488281 1.66016 0.0488281 2.63672 1.02539l2.88086 2.88086-12.207 12.207-2.88086-2.88086c-0.976562-0.976562-1.12305-1.36719-1.07422-2.68555l0.341797-4.88281-7.4707-7.42188-7.61719 1.26953c-1.61133 0.341797-2.34375 0.195312-3.56445-0.976562l-10.0098-10.0098c-1.26953-1.17188-1.41602-2.00195-0.634766-3.85742l4.39453-10.4492c-7.8125-7.27539-17.9688-10.4004-28.125-7.42188-0.78125 0.195312-1.07422-0.439453-0.439453-0.976562Z"/>
</g>
<text style="stroke:none;fill:black;font-family:sans-serif;font-size:13;font-weight:bold;" transform="matrix(1 0 0 1 1289 1953)">Exporting</text>
<text style="stroke:none;fill:black;font-family:sans-serif;font-size:13;" transform="matrix(1 0 0 1 1289 1971)">Symbols should be outlined when exporting to ensure the</text>
<text style="stroke:none;fill:black;font-family:sans-serif;font-size:13;" transform="matrix(1 0 0 1 1289 1989)">design is preserved when submitting to Xcode.</text>
<text id="template-version" style="stroke:none;fill:black;font-family:sans-serif;font-size:13;text-anchor:end;" transform="matrix(1 0 0 1 3036 1933)">Template v.5.0</text>
<text style="stroke:none;fill:black;font-family:sans-serif;font-size:13;text-anchor:end;" transform="matrix(1 0 0 1 3036 1951)">Requires Xcode 15 or greater</text>
<text id="descriptive-name" style="stroke:none;fill:black;font-family:sans-serif;font-size:13;text-anchor:end;" transform="matrix(1 0 0 1 3036 1969)">Generated from circle</text>
<text style="stroke:none;fill:black;font-family:sans-serif;font-size:13;text-anchor:end;" transform="matrix(1 0 0 1 3036 1987)">Typeset at 100.0 points</text>
<text style="stroke:none;fill:black;font-family:sans-serif;font-size:13;" transform="matrix(1 0 0 1 263 726)">Small</text>
<text style="stroke:none;fill:black;font-family:sans-serif;font-size:13;" transform="matrix(1 0 0 1 263 1156)">Medium</text>
<text style="stroke:none;fill:black;font-family:sans-serif;font-size:13;" transform="matrix(1 0 0 1 263 1586)">Large</text>
</g>
<g id="Guides">
<g id="H-reference" style="fill:#27AAE1;stroke:none;" transform="matrix(1 0 0 1 339 696)">
 <path d="M0.993654 0L3.63775 0L29.3281-67.1323L30.0303-67.1323L30.0303-70.459L28.1226-70.459ZM11.6885-24.4799L46.9815-24.4799L46.2315-26.7285L12.4385-26.7285ZM55.1196 0L57.7637 0L30.6382-70.459L29.4326-70.459L29.4326-67.1323Z"/>
</g>
<line id="Baseline-S" style="fill:none;stroke:#27AAE1;opacity:1;stroke-width:0.5;" x1="263" x2="3036" y1="696" y2="696"/>
<line id="Capline-S" style="fill:none;stroke:#27AAE1;opacity:1;stroke-width:0.5;" x1="263" x2="3036" y1="625.541" y2="625.541"/>
<g id="H-reference" style="fill:#27AAE1;stroke:none;" transform="matrix(1 0 0 1 339 1126)">
 <path d="M0.993654 0L3.63775 0L29.3281-67.1323L30.0303-67.1323L30.0303-70.459L28.1226-70.459ZM11.6885-24.4799L46.9815-24.4799L46.2315-26.7285L12.4385-26.7285ZM55.1196 0L57.7637 0L30.6382-70.459L29.4326-70.459L29.4326-67.1323Z"/>
</g>
<line id="Baseline-M" style="fill:none;stroke:#27AAE1;opacity:1;stroke-width:0.5;" x1="263" x2="3036" y1="1126" y2="1126"/>
<line id="Capline-M" style="fill:none;stroke:#27AAE1;opacity:1;stroke-width:0.5;" x1="263" x2="3036" y1="1055.54" y2="1055.54"/>
<g id="H-reference" style="fill:#27AAE1;stroke:none;" transform="matrix(1 0 0 1 339 1556)">
 <path d="M0.993654 0L3.63775 0L29.3281-67.1323L30.0303-67.1323L30.0303-70.459L28.1226-70.459ZM11.6885-24.4799L46.9815-24.4799L46.2315-26.7285L12.4385-26.7285ZM55.1196 0L57.7637 0L30.6382-70.459L29.4326-70.459L29.4326-67.1323Z"/>
</g>
<line id="Baseline-L" style="fill:none;stroke:#27AAE1;opacity:1;stroke-width:0.5;" x1="263" x2="3036" y1="1556" y2="1556"/>
<line id="Capline-L" style="fill:none;stroke:#27AAE1;opacity:1;stroke-width:0.5;" x1="263" x2="3036" y1="1485.54" y2="1485.54"/>
<line id="left-margin-Ultralight-S" style="fill:none;stroke:#00AEEF;stroke-width:0.5;opacity:1.0;" x1="515.649" x2="515.649" y1="600.785" y2="720.121"/>
<line id="right-margin-Ultralight-S" style="fill:none;stroke:#00AEEF;stroke-width:0.5;opacity:1.0;" x1="603.773" x2="603.773" y1="600.785" y2="720.121"/>
<line id="left-margin-Regular-S" style="fill:none;stroke:#00AEEF;stroke-width:0.5;opacity:1.0;" x1="1403.58" x2="1403.58" y1="600.785" y2="720.121"/>
<line id="right-margin-Regular-S" style="fill:none;stroke:#00AEEF;stroke-width:0.5;opacity:1.0;" x1="1496.11" x2="1496.11" y1="600.785" y2="720.121"/>
<line id="left-margin-Black-S" style="fill:none;stroke:#00AEEF;stroke-width:0.5;opacity:1.0;" x1="2884.57" x2="2884.57" y1="600.785" y2="720.121"/>
<line id="right-margin-Black-S" style="fill:none;stroke:#00AEEF;stroke-width:0.5;opacity:1.0;" x1="2982.23" x2="2982.23" y1="600.785" y2="720.121"/>
</g>
<g id="Symbols">
<g id="Black-S" transform="matrix(1 0 0 1 2884.57 696) translate(3 -81.25)">
<g clip-path="url(#clip0_146_9495)">
<path d="M91.9544 24.4182C91.6133 21.9836 90.3866 19.7603 88.5088 18.1737C86.6311 16.587 84.2343 15.7484 81.7769 15.8183C80.5988 15.8171 79.4284 16.0081 78.3117 16.3839C77.9122 13.5433 76.4822 10.9489 74.2939 9.0942C72.1056 7.23955 69.3119 6.25417 66.4442 6.32561C64.1144 6.31715 61.8294 6.96547 59.8512 8.1962C58.4894 5.71399 56.4855 3.6434 54.0491 2.20112C51.6128 0.758848 48.8336 -0.00210571 46.0024 -0.00210571C43.1711 -0.00210571 40.3919 0.758848 37.9556 2.20112C35.5192 3.6434 33.5153 5.71399 32.1535 8.1962C30.1739 6.96587 27.8879 6.31762 25.5571 6.32561C22.6916 6.25681 19.9007 7.24346 17.7152 9.09794C15.5296 10.9524 14.1018 13.5454 13.7032 16.3839C12.5854 16.0081 11.4139 15.8171 10.2346 15.8183C7.77655 15.7456 5.37806 16.5821 3.49833 18.1676C1.61859 19.7531 0.389682 21.9763 0.0468813 24.4114C0.011591 24.7509 -0.00320068 25.0922 0.00258679 25.4336C-0.00563562 25.7134 0.00574974 25.9935 0.0366594 26.2717C0.24791 48.9675 10.2585 69.4111 25.4583 79.3297C24.0518 79.664 22.7962 80.4562 21.889 81.5818C20.9817 82.7074 20.4742 84.1025 20.4462 85.5479C20.4979 87.3058 21.244 88.9715 22.5213 90.1804C23.7985 91.3893 25.5027 92.0428 27.2607 91.9979H64.7406C66.4986 92.0428 68.2028 91.3893 69.4801 90.1804C70.7573 88.9715 71.5034 87.3058 71.5551 85.5479C71.5271 84.1025 71.0196 82.7074 70.1123 81.5818C69.2051 80.4562 67.9496 79.664 66.5431 79.3297C81.7531 69.4145 91.7568 48.9846 91.9544 26.4557C91.9896 26.1162 92.0044 25.7749 91.9987 25.4336C92.0047 25.0945 91.9899 24.7554 91.9544 24.4182ZM88.5472 26.2377C88.3223 50.2759 76.6899 71.5781 59.5854 79.2445C59.2313 79.4037 58.9421 79.6792 58.7659 80.0252C58.5897 80.3712 58.537 80.7671 58.6165 81.1471C58.696 81.5272 58.903 81.8687 59.2031 82.1151C59.5033 82.3615 59.8786 82.4979 60.2669 82.5018H64.6963C65.1279 82.4477 65.566 82.486 65.9816 82.6141C66.3972 82.7423 66.7808 82.9574 67.107 83.2451C67.4331 83.5329 67.6943 83.8868 67.8732 84.2832C68.0521 84.6796 68.1446 85.1096 68.1446 85.5445C68.1446 85.9794 68.0521 86.4094 67.8732 86.8058C67.6943 87.2023 67.4331 87.5561 67.107 87.8439C66.7808 88.1316 66.3972 88.3467 65.9816 88.4749C65.566 88.6031 65.1279 88.6413 64.6963 88.5872H27.2164C26.7849 88.6413 26.3467 88.6031 25.9311 88.4749C25.5155 88.3467 25.1319 88.1316 24.8058 87.8439C24.4796 87.5561 24.2185 87.2023 24.0396 86.8058C23.8607 86.4094 23.7682 85.9794 23.7682 85.5445C23.7682 85.1096 23.8607 84.6796 24.0396 84.2832C24.2185 83.8868 24.4796 83.5329 24.8058 83.2451C25.1319 82.9574 25.5155 82.7423 25.9311 82.6141C26.3467 82.486 26.7849 82.4477 27.2164 82.5018H31.6459C32.0356 82.5017 32.4135 82.368 32.7166 82.123C33.0197 81.878 33.2296 81.5365 33.3113 81.1554C33.393 80.7743 33.3416 80.3767 33.1656 80.029C32.9897 79.6812 32.6998 79.4043 32.3443 79.2445C15.2569 71.5781 3.62451 50.2827 3.38259 26.0537C3.36097 25.8466 3.35301 25.6383 3.35874 25.4301C3.35326 25.2186 3.36123 25.0069 3.38259 24.7964C3.63318 23.1866 4.47093 21.7265 5.7343 20.6979C6.99767 19.6692 8.59718 19.1447 10.2244 19.2255C11.7527 19.2095 13.2454 19.6875 14.4801 20.5884C14.7539 20.795 15.0836 20.9141 15.4263 20.9302C15.7689 20.9463 16.1084 20.8586 16.4003 20.6785C16.6923 20.4985 16.9231 20.2346 17.0625 19.9212C17.202 19.6078 17.2437 19.2597 17.182 18.9223C17.0924 18.4596 17.0445 17.9897 17.0389 17.5185C17.1397 15.3575 18.0927 13.3245 19.6892 11.8646C21.2857 10.4047 23.3957 9.63698 25.5571 9.72947C27.8392 9.69547 30.0427 10.5622 31.6901 12.1418C31.8986 12.3499 32.1575 12.5003 32.4415 12.5784C32.7254 12.6566 33.0248 12.6598 33.3104 12.5877C33.596 12.5156 33.858 12.3707 34.0709 12.1672C34.2837 11.9636 34.4402 11.7084 34.525 11.4263C35.3342 9.04149 36.8838 6.97738 38.948 5.53468C41.0121 4.09198 43.483 3.34606 46.0007 3.40559C48.5206 3.34355 50.9943 4.08873 53.0607 5.53231C55.1271 6.97589 56.6778 9.04227 57.4865 11.4297C57.5713 11.7118 57.7278 11.967 57.9407 12.1706C58.1535 12.3741 58.4156 12.519 58.7011 12.5911C58.9867 12.6632 59.2861 12.66 59.5701 12.5818C59.854 12.5037 60.1129 12.3533 60.3214 12.1452C61.9692 10.5662 64.1725 9.69962 66.4545 9.73288C68.6158 9.64039 70.7258 10.4081 72.3223 11.868C73.9189 13.3279 74.8718 15.3609 74.9726 17.5219C74.9687 17.9932 74.9208 18.4632 74.8295 18.9257C74.7679 19.2631 74.8095 19.6112 74.949 19.9246C75.0885 20.238 75.3193 20.5019 75.6112 20.6819C75.9032 20.862 76.2427 20.9497 76.5853 20.9336C76.9279 20.9175 77.2577 20.7984 77.5315 20.5918C78.7662 19.6909 80.2588 19.2129 81.7872 19.2289C83.4075 19.1606 84.9961 19.6921 86.249 20.7218C87.5019 21.7516 88.3311 23.2072 88.5778 24.81C88.5994 25.0171 88.6074 25.2254 88.6017 25.4336C88.602 25.7011 88.5872 25.9684 88.5574 26.2343L88.5472 26.2377Z" fill="#D4E9F7"/>
<path d="M73.2587 27.2563C72.8069 27.2563 72.3736 27.4358 72.0541 27.7553C71.7346 28.0748 71.5551 28.5081 71.5551 28.96C70.9521 42.1661 66.3275 54.8726 58.3008 65.3768C58.161 65.5515 58.057 65.7521 57.9946 65.967C57.9323 66.182 57.913 66.4071 57.9376 66.6295C57.9875 67.0787 58.2137 67.4897 58.5666 67.7721C58.9195 68.0545 59.3701 68.1852 59.8193 68.1353C60.0417 68.1107 60.2571 68.0424 60.4532 67.9345C60.6492 67.8266 60.8221 67.6811 60.9619 67.5064C69.525 56.4269 74.4191 42.9524 74.9624 28.96C74.9624 28.5081 74.7829 28.0748 74.4634 27.7553C74.1439 27.4358 73.7106 27.2563 73.2587 27.2563Z" fill="#D4E9F7"/>
<path d="M20.4462 28.96C20.4462 28.5081 20.2667 28.0748 19.9472 27.7553C19.6277 27.4358 19.1944 27.2563 18.7426 27.2563C18.2907 27.2563 17.8574 27.4358 17.5379 27.7553C17.2184 28.0748 17.0389 28.5081 17.0389 28.96C17.5823 42.9529 22.4777 56.4277 31.0428 67.5064C31.2025 67.7053 31.4048 67.8658 31.6348 67.9761C31.8647 68.0863 32.1166 68.1436 32.3716 68.1435C32.6925 68.1437 33.0069 68.0533 33.2786 67.8826C33.5503 67.712 33.7684 67.4681 33.9076 67.179C34.0468 66.8899 34.1015 66.5674 34.0655 66.2486C34.0294 65.9297 33.9041 65.6276 33.7039 65.3768C25.6858 54.8676 21.0611 42.1643 20.4462 28.96Z" fill="#D4E9F7"/>
<path d="M37.4688 22.3568C37.5135 21.9142 37.3833 21.4717 37.1061 21.1238C36.8288 20.7759 36.4265 20.5503 35.9851 20.4951C35.5437 20.4399 35.0982 20.5596 34.7439 20.8285C34.3895 21.0975 34.1544 21.4943 34.0888 21.9343C33.9457 23.0689 30.7292 49.9761 41.1316 67.3157C41.2466 67.5076 41.3983 67.675 41.578 67.8084C41.7577 67.9417 41.9619 68.0384 42.1789 68.0928C42.396 68.1472 42.6216 68.1583 42.843 68.1256C43.0643 68.0928 43.277 68.0167 43.469 67.9017C43.6609 67.7867 43.8284 67.635 43.9617 67.4554C44.0951 67.2757 44.1917 67.0714 44.2461 66.8544C44.3005 66.6374 44.3117 66.4117 44.2789 66.1904C44.2461 65.969 44.17 65.7563 44.055 65.5643C34.2626 49.2401 37.4347 22.6226 37.4688 22.3568Z" fill="#D4E9F7"/>
<path d="M57.9125 21.9342C57.8896 21.7082 57.8218 21.4891 57.7131 21.2897C57.6044 21.0903 57.4568 20.9147 57.2792 20.7731C57.1016 20.6316 56.8975 20.527 56.6789 20.4655C56.4602 20.404 56.2315 20.3868 56.0061 20.415C55.7808 20.4431 55.5633 20.5161 55.3666 20.6295C55.1698 20.7429 54.9977 20.8946 54.8604 21.0755C54.7231 21.2564 54.6234 21.4629 54.567 21.683C54.5107 21.903 54.499 22.132 54.5324 22.3567C54.5665 22.6224 57.7523 49.2196 47.9462 65.5642C47.714 65.9519 47.6452 66.4159 47.7551 66.8543C47.8651 67.2926 48.1446 67.6693 48.5323 67.9016C48.9199 68.1338 49.384 68.2025 49.8223 68.0926C50.2607 67.9827 50.6374 67.7032 50.8696 67.3155C61.2754 49.976 58.0556 23.0688 57.9125 21.9342Z" fill="#D4E9F7"/>
</g>
<defs>
<clipPath id="clip0_146_9495">
<rect width="92" height="92" fill="white"/>
</clipPath>
</defs>
</g>
<g id="Regular-S" transform="matrix(1 0 0 1 1403.58 696) translate(0 -81.25)">
 <g clip-path="url(#clip0_146_9495)">
<path d="M91.9544 24.4182C91.6133 21.9836 90.3866 19.7603 88.5088 18.1737C86.6311 16.587 84.2343 15.7484 81.7769 15.8183C80.5988 15.8171 79.4284 16.0081 78.3117 16.3839C77.9122 13.5433 76.4822 10.9489 74.2939 9.0942C72.1056 7.23955 69.3119 6.25417 66.4442 6.32561C64.1144 6.31715 61.8294 6.96547 59.8512 8.1962C58.4894 5.71399 56.4855 3.6434 54.0491 2.20112C51.6128 0.758848 48.8336 -0.00210571 46.0024 -0.00210571C43.1711 -0.00210571 40.3919 0.758848 37.9556 2.20112C35.5192 3.6434 33.5153 5.71399 32.1535 8.1962C30.1739 6.96587 27.8879 6.31762 25.5571 6.32561C22.6916 6.25681 19.9007 7.24346 17.7152 9.09794C15.5296 10.9524 14.1018 13.5454 13.7032 16.3839C12.5854 16.0081 11.4139 15.8171 10.2346 15.8183C7.77655 15.7456 5.37806 16.5821 3.49833 18.1676C1.61859 19.7531 0.389682 21.9763 0.0468813 24.4114C0.011591 24.7509 -0.00320068 25.0922 0.00258679 25.4336C-0.00563562 25.7134 0.00574974 25.9935 0.0366594 26.2717C0.24791 48.9675 10.2585 69.4111 25.4583 79.3297C24.0518 79.664 22.7962 80.4562 21.889 81.5818C20.9817 82.7074 20.4742 84.1025 20.4462 85.5479C20.4979 87.3058 21.244 88.9715 22.5213 90.1804C23.7985 91.3893 25.5027 92.0428 27.2607 91.9979H64.7406C66.4986 92.0428 68.2028 91.3893 69.4801 90.1804C70.7573 88.9715 71.5034 87.3058 71.5551 85.5479C71.5271 84.1025 71.0196 82.7074 70.1123 81.5818C69.2051 80.4562 67.9496 79.664 66.5431 79.3297C81.7531 69.4145 91.7568 48.9846 91.9544 26.4557C91.9896 26.1162 92.0044 25.7749 91.9987 25.4336C92.0047 25.0945 91.9899 24.7554 91.9544 24.4182ZM88.5472 26.2377C88.3223 50.2759 76.6899 71.5781 59.5854 79.2445C59.2313 79.4037 58.9421 79.6792 58.7659 80.0252C58.5897 80.3712 58.537 80.7671 58.6165 81.1471C58.696 81.5272 58.903 81.8687 59.2031 82.1151C59.5033 82.3615 59.8786 82.4979 60.2669 82.5018H64.6963C65.1279 82.4477 65.566 82.486 65.9816 82.6141C66.3972 82.7423 66.7808 82.9574 67.107 83.2451C67.4331 83.5329 67.6943 83.8868 67.8732 84.2832C68.0521 84.6796 68.1446 85.1096 68.1446 85.5445C68.1446 85.9794 68.0521 86.4094 67.8732 86.8058C67.6943 87.2023 67.4331 87.5561 67.107 87.8439C66.7808 88.1316 66.3972 88.3467 65.9816 88.4749C65.566 88.6031 65.1279 88.6413 64.6963 88.5872H27.2164C26.7849 88.6413 26.3467 88.6031 25.9311 88.4749C25.5155 88.3467 25.1319 88.1316 24.8058 87.8439C24.4796 87.5561 24.2185 87.2023 24.0396 86.8058C23.8607 86.4094 23.7682 85.9794 23.7682 85.5445C23.7682 85.1096 23.8607 84.6796 24.0396 84.2832C24.2185 83.8868 24.4796 83.5329 24.8058 83.2451C25.1319 82.9574 25.5155 82.7423 25.9311 82.6141C26.3467 82.486 26.7849 82.4477 27.2164 82.5018H31.6459C32.0356 82.5017 32.4135 82.368 32.7166 82.123C33.0197 81.878 33.2296 81.5365 33.3113 81.1554C33.393 80.7743 33.3416 80.3767 33.1656 80.029C32.9897 79.6812 32.6998 79.4043 32.3443 79.2445C15.2569 71.5781 3.62451 50.2827 3.38259 26.0537C3.36097 25.8466 3.35301 25.6383 3.35874 25.4301C3.35326 25.2186 3.36123 25.0069 3.38259 24.7964C3.63318 23.1866 4.47093 21.7265 5.7343 20.6979C6.99767 19.6692 8.59718 19.1447 10.2244 19.2255C11.7527 19.2095 13.2454 19.6875 14.4801 20.5884C14.7539 20.795 15.0836 20.9141 15.4263 20.9302C15.7689 20.9463 16.1084 20.8586 16.4003 20.6785C16.6923 20.4985 16.9231 20.2346 17.0625 19.9212C17.202 19.6078 17.2437 19.2597 17.182 18.9223C17.0924 18.4596 17.0445 17.9897 17.0389 17.5185C17.1397 15.3575 18.0927 13.3245 19.6892 11.8646C21.2857 10.4047 23.3957 9.63698 25.5571 9.72947C27.8392 9.69547 30.0427 10.5622 31.6901 12.1418C31.8986 12.3499 32.1575 12.5003 32.4415 12.5784C32.7254 12.6566 33.0248 12.6598 33.3104 12.5877C33.596 12.5156 33.858 12.3707 34.0709 12.1672C34.2837 11.9636 34.4402 11.7084 34.525 11.4263C35.3342 9.04149 36.8838 6.97738 38.948 5.53468C41.0121 4.09198 43.483 3.34606 46.0007 3.40559C48.5206 3.34355 50.9943 4.08873 53.0607 5.53231C55.1271 6.97589 56.6778 9.04227 57.4865 11.4297C57.5713 11.7118 57.7278 11.967 57.9407 12.1706C58.1535 12.3741 58.4156 12.519 58.7011 12.5911C58.9867 12.6632 59.2861 12.66 59.5701 12.5818C59.854 12.5037 60.1129 12.3533 60.3214 12.1452C61.9692 10.5662 64.1725 9.69962 66.4545 9.73288C68.6158 9.64039 70.7258 10.4081 72.3223 11.868C73.9189 13.3279 74.8718 15.3609 74.9726 17.5219C74.9687 17.9932 74.9208 18.4632 74.8295 18.9257C74.7679 19.2631 74.8095 19.6112 74.949 19.9246C75.0885 20.238 75.3193 20.5019 75.6112 20.6819C75.9032 20.862 76.2427 20.9497 76.5853 20.9336C76.9279 20.9175 77.2577 20.7984 77.5315 20.5918C78.7662 19.6909 80.2588 19.2129 81.7872 19.2289C83.4075 19.1606 84.9961 19.6921 86.249 20.7218C87.5019 21.7516 88.3311 23.2072 88.5778 24.81C88.5994 25.0171 88.6074 25.2254 88.6017 25.4336C88.602 25.7011 88.5872 25.9684 88.5574 26.2343L88.5472 26.2377Z" fill="#D4E9F7"/>
<path d="M73.2587 27.2563C72.8069 27.2563 72.3736 27.4358 72.0541 27.7553C71.7346 28.0748 71.5551 28.5081 71.5551 28.96C70.9521 42.1661 66.3275 54.8726 58.3008 65.3768C58.161 65.5515 58.057 65.7521 57.9946 65.967C57.9323 66.182 57.913 66.4071 57.9376 66.6295C57.9875 67.0787 58.2137 67.4897 58.5666 67.7721C58.9195 68.0545 59.3701 68.1852 59.8193 68.1353C60.0417 68.1107 60.2571 68.0424 60.4532 67.9345C60.6492 67.8266 60.8221 67.6811 60.9619 67.5064C69.525 56.4269 74.4191 42.9524 74.9624 28.96C74.9624 28.5081 74.7829 28.0748 74.4634 27.7553C74.1439 27.4358 73.7106 27.2563 73.2587 27.2563Z" fill="#D4E9F7"/>
<path d="M20.4462 28.96C20.4462 28.5081 20.2667 28.0748 19.9472 27.7553C19.6277 27.4358 19.1944 27.2563 18.7426 27.2563C18.2907 27.2563 17.8574 27.4358 17.5379 27.7553C17.2184 28.0748 17.0389 28.5081 17.0389 28.96C17.5823 42.9529 22.4777 56.4277 31.0428 67.5064C31.2025 67.7053 31.4048 67.8658 31.6348 67.9761C31.8647 68.0863 32.1166 68.1436 32.3716 68.1435C32.6925 68.1437 33.0069 68.0533 33.2786 67.8826C33.5503 67.712 33.7684 67.4681 33.9076 67.179C34.0468 66.8899 34.1015 66.5674 34.0655 66.2486C34.0294 65.9297 33.9041 65.6276 33.7039 65.3768C25.6858 54.8676 21.0611 42.1643 20.4462 28.96Z" fill="#D4E9F7"/>
<path d="M37.4688 22.3568C37.5135 21.9142 37.3833 21.4717 37.1061 21.1238C36.8288 20.7759 36.4265 20.5503 35.9851 20.4951C35.5437 20.4399 35.0982 20.5596 34.7439 20.8285C34.3895 21.0975 34.1544 21.4943 34.0888 21.9343C33.9457 23.0689 30.7292 49.9761 41.1316 67.3157C41.2466 67.5076 41.3983 67.675 41.578 67.8084C41.7577 67.9417 41.9619 68.0384 42.1789 68.0928C42.396 68.1472 42.6216 68.1583 42.843 68.1256C43.0643 68.0928 43.277 68.0167 43.469 67.9017C43.6609 67.7867 43.8284 67.635 43.9617 67.4554C44.0951 67.2757 44.1917 67.0714 44.2461 66.8544C44.3005 66.6374 44.3117 66.4117 44.2789 66.1904C44.2461 65.969 44.17 65.7563 44.055 65.5643C34.2626 49.2401 37.4347 22.6226 37.4688 22.3568Z" fill="#D4E9F7"/>
<path d="M57.9125 21.9342C57.8896 21.7082 57.8218 21.4891 57.7131 21.2897C57.6044 21.0903 57.4568 20.9147 57.2792 20.7731C57.1016 20.6316 56.8975 20.527 56.6789 20.4655C56.4602 20.404 56.2315 20.3868 56.0061 20.415C55.7808 20.4431 55.5633 20.5161 55.3666 20.6295C55.1698 20.7429 54.9977 20.8946 54.8604 21.0755C54.7231 21.2564 54.6234 21.4629 54.567 21.683C54.5107 21.903 54.499 22.132 54.5324 22.3567C54.5665 22.6224 57.7523 49.2196 47.9462 65.5642C47.714 65.9519 47.6452 66.4159 47.7551 66.8543C47.8651 67.2926 48.1446 67.6693 48.5323 67.9016C48.9199 68.1338 49.384 68.2025 49.8223 68.0926C50.2607 67.9827 50.6374 67.7032 50.8696 67.3155C61.2754 49.976 58.0556 23.0688 57.9125 21.9342Z" fill="#D4E9F7"/>
</g>
<defs>
<clipPath id="clip0_146_9495">
<rect width="92" height="92" fill="white"/>
</clipPath>
</defs>
</g>
<g id="Ultralight-S" transform="matrix(1 0 0 1 515.649 696) translate(-2 -81.25)">
 <g clip-path="url(#clip0_146_9495)">
<path d="M91.9544 24.4182C91.6133 21.9836 90.3866 19.7603 88.5088 18.1737C86.6311 16.587 84.2343 15.7484 81.7769 15.8183C80.5988 15.8171 79.4284 16.0081 78.3117 16.3839C77.9122 13.5433 76.4822 10.9489 74.2939 9.0942C72.1056 7.23955 69.3119 6.25417 66.4442 6.32561C64.1144 6.31715 61.8294 6.96547 59.8512 8.1962C58.4894 5.71399 56.4855 3.6434 54.0491 2.20112C51.6128 0.758848 48.8336 -0.00210571 46.0024 -0.00210571C43.1711 -0.00210571 40.3919 0.758848 37.9556 2.20112C35.5192 3.6434 33.5153 5.71399 32.1535 8.1962C30.1739 6.96587 27.8879 6.31762 25.5571 6.32561C22.6916 6.25681 19.9007 7.24346 17.7152 9.09794C15.5296 10.9524 14.1018 13.5454 13.7032 16.3839C12.5854 16.0081 11.4139 15.8171 10.2346 15.8183C7.77655 15.7456 5.37806 16.5821 3.49833 18.1676C1.61859 19.7531 0.389682 21.9763 0.0468813 24.4114C0.011591 24.7509 -0.00320068 25.0922 0.00258679 25.4336C-0.00563562 25.7134 0.00574974 25.9935 0.0366594 26.2717C0.24791 48.9675 10.2585 69.4111 25.4583 79.3297C24.0518 79.664 22.7962 80.4562 21.889 81.5818C20.9817 82.7074 20.4742 84.1025 20.4462 85.5479C20.4979 87.3058 21.244 88.9715 22.5213 90.1804C23.7985 91.3893 25.5027 92.0428 27.2607 91.9979H64.7406C66.4986 92.0428 68.2028 91.3893 69.4801 90.1804C70.7573 88.9715 71.5034 87.3058 71.5551 85.5479C71.5271 84.1025 71.0196 82.7074 70.1123 81.5818C69.2051 80.4562 67.9496 79.664 66.5431 79.3297C81.7531 69.4145 91.7568 48.9846 91.9544 26.4557C91.9896 26.1162 92.0044 25.7749 91.9987 25.4336C92.0047 25.0945 91.9899 24.7554 91.9544 24.4182ZM88.5472 26.2377C88.3223 50.2759 76.6899 71.5781 59.5854 79.2445C59.2313 79.4037 58.9421 79.6792 58.7659 80.0252C58.5897 80.3712 58.537 80.7671 58.6165 81.1471C58.696 81.5272 58.903 81.8687 59.2031 82.1151C59.5033 82.3615 59.8786 82.4979 60.2669 82.5018H64.6963C65.1279 82.4477 65.566 82.486 65.9816 82.6141C66.3972 82.7423 66.7808 82.9574 67.107 83.2451C67.4331 83.5329 67.6943 83.8868 67.8732 84.2832C68.0521 84.6796 68.1446 85.1096 68.1446 85.5445C68.1446 85.9794 68.0521 86.4094 67.8732 86.8058C67.6943 87.2023 67.4331 87.5561 67.107 87.8439C66.7808 88.1316 66.3972 88.3467 65.9816 88.4749C65.566 88.6031 65.1279 88.6413 64.6963 88.5872H27.2164C26.7849 88.6413 26.3467 88.6031 25.9311 88.4749C25.5155 88.3467 25.1319 88.1316 24.8058 87.8439C24.4796 87.5561 24.2185 87.2023 24.0396 86.8058C23.8607 86.4094 23.7682 85.9794 23.7682 85.5445C23.7682 85.1096 23.8607 84.6796 24.0396 84.2832C24.2185 83.8868 24.4796 83.5329 24.8058 83.2451C25.1319 82.9574 25.5155 82.7423 25.9311 82.6141C26.3467 82.486 26.7849 82.4477 27.2164 82.5018H31.6459C32.0356 82.5017 32.4135 82.368 32.7166 82.123C33.0197 81.878 33.2296 81.5365 33.3113 81.1554C33.393 80.7743 33.3416 80.3767 33.1656 80.029C32.9897 79.6812 32.6998 79.4043 32.3443 79.2445C15.2569 71.5781 3.62451 50.2827 3.38259 26.0537C3.36097 25.8466 3.35301 25.6383 3.35874 25.4301C3.35326 25.2186 3.36123 25.0069 3.38259 24.7964C3.63318 23.1866 4.47093 21.7265 5.7343 20.6979C6.99767 19.6692 8.59718 19.1447 10.2244 19.2255C11.7527 19.2095 13.2454 19.6875 14.4801 20.5884C14.7539 20.795 15.0836 20.9141 15.4263 20.9302C15.7689 20.9463 16.1084 20.8586 16.4003 20.6785C16.6923 20.4985 16.9231 20.2346 17.0625 19.9212C17.202 19.6078 17.2437 19.2597 17.182 18.9223C17.0924 18.4596 17.0445 17.9897 17.0389 17.5185C17.1397 15.3575 18.0927 13.3245 19.6892 11.8646C21.2857 10.4047 23.3957 9.63698 25.5571 9.72947C27.8392 9.69547 30.0427 10.5622 31.6901 12.1418C31.8986 12.3499 32.1575 12.5003 32.4415 12.5784C32.7254 12.6566 33.0248 12.6598 33.3104 12.5877C33.596 12.5156 33.858 12.3707 34.0709 12.1672C34.2837 11.9636 34.4402 11.7084 34.525 11.4263C35.3342 9.04149 36.8838 6.97738 38.948 5.53468C41.0121 4.09198 43.483 3.34606 46.0007 3.40559C48.5206 3.34355 50.9943 4.08873 53.0607 5.53231C55.1271 6.97589 56.6778 9.04227 57.4865 11.4297C57.5713 11.7118 57.7278 11.967 57.9407 12.1706C58.1535 12.3741 58.4156 12.519 58.7011 12.5911C58.9867 12.6632 59.2861 12.66 59.5701 12.5818C59.854 12.5037 60.1129 12.3533 60.3214 12.1452C61.9692 10.5662 64.1725 9.69962 66.4545 9.73288C68.6158 9.64039 70.7258 10.4081 72.3223 11.868C73.9189 13.3279 74.8718 15.3609 74.9726 17.5219C74.9687 17.9932 74.9208 18.4632 74.8295 18.9257C74.7679 19.2631 74.8095 19.6112 74.949 19.9246C75.0885 20.238 75.3193 20.5019 75.6112 20.6819C75.9032 20.862 76.2427 20.9497 76.5853 20.9336C76.9279 20.9175 77.2577 20.7984 77.5315 20.5918C78.7662 19.6909 80.2588 19.2129 81.7872 19.2289C83.4075 19.1606 84.9961 19.6921 86.249 20.7218C87.5019 21.7516 88.3311 23.2072 88.5778 24.81C88.5994 25.0171 88.6074 25.2254 88.6017 25.4336C88.602 25.7011 88.5872 25.9684 88.5574 26.2343L88.5472 26.2377Z" fill="#D4E9F7"/>
<path d="M73.2587 27.2563C72.8069 27.2563 72.3736 27.4358 72.0541 27.7553C71.7346 28.0748 71.5551 28.5081 71.5551 28.96C70.9521 42.1661 66.3275 54.8726 58.3008 65.3768C58.161 65.5515 58.057 65.7521 57.9946 65.967C57.9323 66.182 57.913 66.4071 57.9376 66.6295C57.9875 67.0787 58.2137 67.4897 58.5666 67.7721C58.9195 68.0545 59.3701 68.1852 59.8193 68.1353C60.0417 68.1107 60.2571 68.0424 60.4532 67.9345C60.6492 67.8266 60.8221 67.6811 60.9619 67.5064C69.525 56.4269 74.4191 42.9524 74.9624 28.96C74.9624 28.5081 74.7829 28.0748 74.4634 27.7553C74.1439 27.4358 73.7106 27.2563 73.2587 27.2563Z" fill="#D4E9F7"/>
<path d="M20.4462 28.96C20.4462 28.5081 20.2667 28.0748 19.9472 27.7553C19.6277 27.4358 19.1944 27.2563 18.7426 27.2563C18.2907 27.2563 17.8574 27.4358 17.5379 27.7553C17.2184 28.0748 17.0389 28.5081 17.0389 28.96C17.5823 42.9529 22.4777 56.4277 31.0428 67.5064C31.2025 67.7053 31.4048 67.8658 31.6348 67.9761C31.8647 68.0863 32.1166 68.1436 32.3716 68.1435C32.6925 68.1437 33.0069 68.0533 33.2786 67.8826C33.5503 67.712 33.7684 67.4681 33.9076 67.179C34.0468 66.8899 34.1015 66.5674 34.0655 66.2486C34.0294 65.9297 33.9041 65.6276 33.7039 65.3768C25.6858 54.8676 21.0611 42.1643 20.4462 28.96Z" fill="#D4E9F7"/>
<path d="M37.4688 22.3568C37.5135 21.9142 37.3833 21.4717 37.1061 21.1238C36.8288 20.7759 36.4265 20.5503 35.9851 20.4951C35.5437 20.4399 35.0982 20.5596 34.7439 20.8285C34.3895 21.0975 34.1544 21.4943 34.0888 21.9343C33.9457 23.0689 30.7292 49.9761 41.1316 67.3157C41.2466 67.5076 41.3983 67.675 41.578 67.8084C41.7577 67.9417 41.9619 68.0384 42.1789 68.0928C42.396 68.1472 42.6216 68.1583 42.843 68.1256C43.0643 68.0928 43.277 68.0167 43.469 67.9017C43.6609 67.7867 43.8284 67.635 43.9617 67.4554C44.0951 67.2757 44.1917 67.0714 44.2461 66.8544C44.3005 66.6374 44.3117 66.4117 44.2789 66.1904C44.2461 65.969 44.17 65.7563 44.055 65.5643C34.2626 49.2401 37.4347 22.6226 37.4688 22.3568Z" fill="#D4E9F7"/>
<path d="M57.9125 21.9342C57.8896 21.7082 57.8218 21.4891 57.7131 21.2897C57.6044 21.0903 57.4568 20.9147 57.2792 20.7731C57.1016 20.6316 56.8975 20.527 56.6789 20.4655C56.4602 20.404 56.2315 20.3868 56.0061 20.415C55.7808 20.4431 55.5633 20.5161 55.3666 20.6295C55.1698 20.7429 54.9977 20.8946 54.8604 21.0755C54.7231 21.2564 54.6234 21.4629 54.567 21.683C54.5107 21.903 54.499 22.132 54.5324 22.3567C54.5665 22.6224 57.7523 49.2196 47.9462 65.5642C47.714 65.9519 47.6452 66.4159 47.7551 66.8543C47.8651 67.2926 48.1446 67.6693 48.5323 67.9016C48.9199 68.1338 49.384 68.2025 49.8223 68.0926C50.2607 67.9827 50.6374 67.7032 50.8696 67.3155C61.2754 49.976 58.0556 23.0688 57.9125 21.9342Z" fill="#D4E9F7"/>
</g>
<defs>
<clipPath id="clip0_146_9495">
<rect width="92" height="92" fill="white"/>
</clipPath>
</defs>
</g>
</g>
</svg>