<?xml version="1.0" encoding="UTF-8"?>
<!DOCTYPE svg
PUBLIC "-//W3C//DTD SVG 1.1//EN"
     "http://www.w3.org/Graphics/SVG/1.1/DTD/svg11.dtd">
<svg version="1.1" xmlns="http://www.w3.org/2000/svg" xmlns:xlink="http://www.w3.org/1999/xlink" width="3300" height="2200">
<!--glyph: "uni100000.medium", point size: 100.0, font version: "19.0d6e1", template writer version: "123"-->
<style>.SFSymbolsPreviewWireframe {fill:none;opacity:1.0;stroke:black;stroke-width:0.5}
</style>
<g id="Notes">
<rect height="2200" id="artboard" style="fill:white;opacity:1" width="3300" x="0" y="0"/>
<line style="fill:none;stroke:black;opacity:1;stroke-width:0.5;" x1="263" x2="3036" y1="292" y2="292"/>
<text style="stroke:none;fill:black;font-family:sans-serif;font-size:13;font-weight:bold;" transform="matrix(1 0 0 1 263 322)">Weight/Scale Variations</text>
<text style="stroke:none;fill:black;font-family:sans-serif;font-size:13;text-anchor:middle;" transform="matrix(1 0 0 1 559.711 322)">Ultralight</text>
<text style="stroke:none;fill:black;font-family:sans-serif;font-size:13;text-anchor:middle;" transform="matrix(1 0 0 1 856.422 322)">Thin</text>
<text style="stroke:none;fill:black;font-family:sans-serif;font-size:13;text-anchor:middle;" transform="matrix(1 0 0 1 1153.13 322)">Light</text>
<text style="stroke:none;fill:black;font-family:sans-serif;font-size:13;text-anchor:middle;" transform="matrix(1 0 0 1 1449.84 322)">Regular</text>
<text style="stroke:none;fill:black;font-family:sans-serif;font-size:13;text-anchor:middle;" transform="matrix(1 0 0 1 1746.56 322)">Medium</text>
<text style="stroke:none;fill:black;font-family:sans-serif;font-size:13;text-anchor:middle;" transform="matrix(1 0 0 1 2043.27 322)">Semibold</text>
<text style="stroke:none;fill:black;font-family:sans-serif;font-size:13;text-anchor:middle;" transform="matrix(1 0 0 1 2339.98 322)">Bold</text>
<text style="stroke:none;fill:black;font-family:sans-serif;font-size:13;text-anchor:middle;" transform="matrix(1 0 0 1 2636.69 322)">Heavy</text>
<text style="stroke:none;fill:black;font-family:sans-serif;font-size:13;text-anchor:middle;" transform="matrix(1 0 0 1 2933.4 322)">Black</text>
<line style="fill:none;stroke:black;opacity:1;stroke-width:0.5;" x1="263" x2="3036" y1="1903" y2="1903"/>
<g transform="matrix(0.2 0 0 0.2 263 1933)">
 <path d="m46.2402 4.15039c21.5332 0 39.4531-17.8711 39.4531-39.4043s-17.9688-39.4043-39.502-39.4043c-21.4844 0-39.3555 17.8711-39.3555 39.4043s17.9199 39.4043 39.4043 39.4043Zm0-7.42188c-17.7246 0-31.8848-14.209-31.8848-31.9824s14.1113-31.9824 31.8359-31.9824c17.7734 0 32.0312 14.209 32.0312 31.9824s-14.209 31.9824-31.9824 31.9824Zm-17.9688-31.9824c0 2.14844 1.51367 3.61328 3.75977 3.61328h10.498v10.5957c0 2.19727 1.46484 3.71094 3.61328 3.71094 2.24609 0 3.71094-1.51367 3.71094-3.71094v-10.5957h10.5957c2.19727 0 3.71094-1.46484 3.71094-3.61328 0-2.19727-1.51367-3.71094-3.71094-3.71094h-10.5957v-10.5469c0-2.24609-1.46484-3.75977-3.71094-3.75977-2.14844 0-3.61328 1.51367-3.61328 3.75977v10.5469h-10.498c-2.24609 0-3.75977 1.51367-3.75977 3.71094Z"/>
</g>
<g transform="matrix(0.2 0 0 0.2 281.506 1933)">
 <path d="m58.5449 14.5508c27.2461 0 49.8047-22.6074 49.8047-49.8047 0-27.2461-22.6074-49.8047-49.8535-49.8047-27.1973 0-49.7559 22.5586-49.7559 49.8047 0 27.1973 22.6074 49.8047 49.8047 49.8047Zm0-8.30078c-23.0469 0-41.4551-18.457-41.4551-41.5039s18.3594-41.5039 41.4062-41.5039 41.5527 18.457 41.5527 41.5039-18.457 41.5039-41.5039 41.5039Zm-22.6562-41.5039c0 2.39258 1.66016 4.00391 4.15039 4.00391h14.3555v14.4043c0 2.44141 1.66016 4.15039 4.05273 4.15039 2.44141 0 4.15039-1.66016 4.15039-4.15039v-14.4043h14.4043c2.44141 0 4.15039-1.61133 4.15039-4.00391 0-2.44141-1.70898-4.15039-4.15039-4.15039h-14.4043v-14.3555c0-2.49023-1.70898-4.19922-4.15039-4.19922-2.39258 0-4.05273 1.70898-4.05273 4.19922v14.3555h-14.3555c-2.49023 0-4.15039 1.70898-4.15039 4.15039Z"/>
</g>
<g transform="matrix(0.2 0 0 0.2 304.924 1933)">
 <path d="m74.8535 28.3203c34.8145 0 63.623-28.8086 63.623-63.5742 0-34.8145-28.8574-63.623-63.6719-63.623-34.7656 0-63.5254 28.8086-63.5254 63.623 0 34.7656 28.8086 63.5742 63.5742 63.5742Zm0-9.08203c-30.1758 0-54.4434-24.3164-54.4434-54.4922 0-30.2246 24.2188-54.4922 54.3945-54.4922 30.2246 0 54.541 24.2676 54.541 54.4922 0 30.1758-24.2676 54.4922-54.4922 54.4922Zm-28.8574-54.4922c0 2.58789 1.85547 4.39453 4.58984 4.39453h19.7266v19.7754c0 2.68555 1.85547 4.58984 4.44336 4.58984 2.68555 0 4.54102-1.85547 4.54102-4.58984v-19.7754h19.7754c2.68555 0 4.58984-1.80664 4.58984-4.39453 0-2.73438-1.85547-4.58984-4.58984-4.58984h-19.7754v-19.7266c0-2.73438-1.85547-4.63867-4.54102-4.63867-2.58789 0-4.44336 1.9043-4.44336 4.63867v19.7266h-19.7266c-2.73438 0-4.58984 1.85547-4.58984 4.58984Z"/>
</g>
<text style="stroke:none;fill:black;font-family:sans-serif;font-size:13;font-weight:bold;" transform="matrix(1 0 0 1 263 1953)">Design Variations</text>
<text style="stroke:none;fill:black;font-family:sans-serif;font-size:13;" transform="matrix(1 0 0 1 263 1971)">Symbols are supported in up to nine weights and three scales.</text>
<text style="stroke:none;fill:black;font-family:sans-serif;font-size:13;" transform="matrix(1 0 0 1 263 1989)">For optimal layout with text and other symbols, vertically align</text>
<text style="stroke:none;fill:black;font-family:sans-serif;font-size:13;" transform="matrix(1 0 0 1 263 2007)">symbols with the adjacent text.</text>
<line style="fill:none;stroke:#00AEEF;stroke-width:0.5;opacity:1.0;" x1="776" x2="776" y1="1919" y2="1933"/>
<g transform="matrix(0.2 0 0 0.2 776 1933)">
 <path d="m16.5527 0.78125c2.58789 0 3.85742-0.976562 4.78516-3.71094l6.29883-17.2363h28.8086l6.29883 17.2363c0.927734 2.73438 2.19727 3.71094 4.73633 3.71094 2.58789 0 4.24805-1.5625 4.24805-4.00391 0-0.830078-0.146484-1.61133-0.537109-2.63672l-22.9004-60.9863c-1.12305-2.97852-3.125-4.49219-6.25-4.49219-3.02734 0-5.07812 1.46484-6.15234 4.44336l-22.9004 61.084c-0.390625 1.02539-0.537109 1.80664-0.537109 2.63672 0 2.44141 1.5625 3.95508 4.10156 3.95508Zm13.4766-28.3691 11.8652-32.8613h0.244141l11.8652 32.8613Z"/>
</g>
<line style="fill:none;stroke:#00AEEF;stroke-width:0.5;opacity:1.0;" x1="792.836" x2="792.836" y1="1919" y2="1933"/>
<text style="stroke:none;fill:black;font-family:sans-serif;font-size:13;font-weight:bold;" transform="matrix(1 0 0 1 776 1953)">Margins</text>
<text style="stroke:none;fill:black;font-family:sans-serif;font-size:13;" transform="matrix(1 0 0 1 776 1971)">Leading and trailing margins on the left and right side of each symbol</text>
<text style="stroke:none;fill:black;font-family:sans-serif;font-size:13;" transform="matrix(1 0 0 1 776 1989)">can be adjusted by modifying the x-location of the margin guidelines.</text>
<text style="stroke:none;fill:black;font-family:sans-serif;font-size:13;" transform="matrix(1 0 0 1 776 2007)">Modifications are automatically applied proportionally to all</text>
<text style="stroke:none;fill:black;font-family:sans-serif;font-size:13;" transform="matrix(1 0 0 1 776 2025)">scales and weights.</text>
<g transform="matrix(0.2 0 0 0.2 1289 1933)">
 <path d="m14.209 9.32617 8.49609 8.54492c4.29688 4.3457 9.22852 4.05273 13.8672-1.07422l53.4668-58.9355-4.83398-4.88281-53.0762 58.3984c-1.75781 2.00195-3.41797 2.49023-5.76172 0.146484l-5.85938-5.81055c-2.34375-2.29492-1.80664-4.00391 0.195312-5.81055l57.373-54.0039-4.88281-4.83398-57.959 54.4434c-4.93164 4.58984-5.32227 9.47266-1.02539 13.8184Zm32.0801-90.9668c-2.09961 2.05078-2.24609 4.93164-1.07422 6.88477 1.17188 1.80664 3.4668 2.97852 6.68945 2.14844 7.32422-1.70898 14.9414-2.00195 22.0703 2.68555l-2.92969 7.27539c-1.70898 4.15039-0.830078 7.08008 1.85547 9.81445l11.4746 11.5723c2.44141 2.44141 4.49219 2.53906 7.32422 2.05078l5.32227-0.976562 3.32031 3.36914-0.195312 2.7832c-0.195312 2.49023 0.439453 4.39453 2.88086 6.78711l3.80859 3.71094c2.39258 2.39258 5.46875 2.53906 7.8125 0.195312l14.5508-14.5996c2.34375-2.34375 2.24609-5.32227-0.146484-7.71484l-3.85742-3.80859c-2.39258-2.39258-4.24805-3.17383-6.64062-2.97852l-2.88086 0.244141-3.22266-3.17383 1.2207-5.61523c0.634766-2.83203-0.146484-5.0293-3.07617-7.95898l-10.9863-10.9375c-16.6992-16.6016-38.8672-16.2109-53.3203-1.75781Zm7.4707 1.85547c12.1582-8.88672 28.6133-7.37305 39.7461 3.75977l12.1582 12.0605c1.17188 1.17188 1.36719 2.09961 1.02539 3.80859l-1.61133 7.42188 7.51953 7.42188 4.93164-0.292969c1.26953-0.0488281 1.66016 0.0488281 2.63672 1.02539l2.88086 2.88086-12.207 12.207-2.88086-2.88086c-0.976562-0.976562-1.12305-1.36719-1.07422-2.68555l0.341797-4.88281-7.4707-7.42188-7.61719 1.26953c-1.61133 0.341797-2.34375 0.195312-3.56445-0.976562l-10.0098-10.0098c-1.26953-1.17188-1.41602-2.00195-0.634766-3.85742l4.39453-10.4492c-7.8125-7.27539-17.9688-10.4004-28.125-7.42188-0.78125 0.195312-1.07422-0.439453-0.439453-0.976562Z"/>
</g>
<text style="stroke:none;fill:black;font-family:sans-serif;font-size:13;font-weight:bold;" transform="matrix(1 0 0 1 1289 1953)">Exporting</text>
<text style="stroke:none;fill:black;font-family:sans-serif;font-size:13;" transform="matrix(1 0 0 1 1289 1971)">Symbols should be outlined when exporting to ensure the</text>
<text style="stroke:none;fill:black;font-family:sans-serif;font-size:13;" transform="matrix(1 0 0 1 1289 1989)">design is preserved when submitting to Xcode.</text>
<text id="template-version" style="stroke:none;fill:black;font-family:sans-serif;font-size:13;text-anchor:end;" transform="matrix(1 0 0 1 3036 1933)">Template v.5.0</text>
<text style="stroke:none;fill:black;font-family:sans-serif;font-size:13;text-anchor:end;" transform="matrix(1 0 0 1 3036 1951)">Requires Xcode 15 or greater</text>
<text id="descriptive-name" style="stroke:none;fill:black;font-family:sans-serif;font-size:13;text-anchor:end;" transform="matrix(1 0 0 1 3036 1969)">Generated from circle</text>
<text style="stroke:none;fill:black;font-family:sans-serif;font-size:13;text-anchor:end;" transform="matrix(1 0 0 1 3036 1987)">Typeset at 100.0 points</text>
<text style="stroke:none;fill:black;font-family:sans-serif;font-size:13;" transform="matrix(1 0 0 1 263 726)">Small</text>
<text style="stroke:none;fill:black;font-family:sans-serif;font-size:13;" transform="matrix(1 0 0 1 263 1156)">Medium</text>
<text style="stroke:none;fill:black;font-family:sans-serif;font-size:13;" transform="matrix(1 0 0 1 263 1586)">Large</text>
</g>
<g id="Guides">
<g id="H-reference" style="fill:#27AAE1;stroke:none;" transform="matrix(1 0 0 1 339 696)">
 <path d="M0.993654 0L3.63775 0L29.3281-67.1323L30.0303-67.1323L30.0303-70.459L28.1226-70.459ZM11.6885-24.4799L46.9815-24.4799L46.2315-26.7285L12.4385-26.7285ZM55.1196 0L57.7637 0L30.6382-70.459L29.4326-70.459L29.4326-67.1323Z"/>
</g>
<line id="Baseline-S" style="fill:none;stroke:#27AAE1;opacity:1;stroke-width:0.5;" x1="263" x2="3036" y1="696" y2="696"/>
<line id="Capline-S" style="fill:none;stroke:#27AAE1;opacity:1;stroke-width:0.5;" x1="263" x2="3036" y1="625.541" y2="625.541"/>
<g id="H-reference" style="fill:#27AAE1;stroke:none;" transform="matrix(1 0 0 1 339 1126)">
 <path d="M0.993654 0L3.63775 0L29.3281-67.1323L30.0303-67.1323L30.0303-70.459L28.1226-70.459ZM11.6885-24.4799L46.9815-24.4799L46.2315-26.7285L12.4385-26.7285ZM55.1196 0L57.7637 0L30.6382-70.459L29.4326-70.459L29.4326-67.1323Z"/>
</g>
<line id="Baseline-M" style="fill:none;stroke:#27AAE1;opacity:1;stroke-width:0.5;" x1="263" x2="3036" y1="1126" y2="1126"/>
<line id="Capline-M" style="fill:none;stroke:#27AAE1;opacity:1;stroke-width:0.5;" x1="263" x2="3036" y1="1055.54" y2="1055.54"/>
<g id="H-reference" style="fill:#27AAE1;stroke:none;" transform="matrix(1 0 0 1 339 1556)">
 <path d="M0.993654 0L3.63775 0L29.3281-67.1323L30.0303-67.1323L30.0303-70.459L28.1226-70.459ZM11.6885-24.4799L46.9815-24.4799L46.2315-26.7285L12.4385-26.7285ZM55.1196 0L57.7637 0L30.6382-70.459L29.4326-70.459L29.4326-67.1323Z"/>
</g>
<line id="Baseline-L" style="fill:none;stroke:#27AAE1;opacity:1;stroke-width:0.5;" x1="263" x2="3036" y1="1556" y2="1556"/>
<line id="Capline-L" style="fill:none;stroke:#27AAE1;opacity:1;stroke-width:0.5;" x1="263" x2="3036" y1="1485.54" y2="1485.54"/>
<line id="left-margin-Ultralight-S" style="fill:none;stroke:#00AEEF;stroke-width:0.5;opacity:1.0;" x1="515.649" x2="515.649" y1="600.785" y2="720.121"/>
<line id="right-margin-Ultralight-S" style="fill:none;stroke:#00AEEF;stroke-width:0.5;opacity:1.0;" x1="603.773" x2="603.773" y1="600.785" y2="720.121"/>
<line id="left-margin-Regular-S" style="fill:none;stroke:#00AEEF;stroke-width:0.5;opacity:1.0;" x1="1403.58" x2="1403.58" y1="600.785" y2="720.121"/>
<line id="right-margin-Regular-S" style="fill:none;stroke:#00AEEF;stroke-width:0.5;opacity:1.0;" x1="1496.11" x2="1496.11" y1="600.785" y2="720.121"/>
<line id="left-margin-Black-S" style="fill:none;stroke:#00AEEF;stroke-width:0.5;opacity:1.0;" x1="2884.57" x2="2884.57" y1="600.785" y2="720.121"/>
<line id="right-margin-Black-S" style="fill:none;stroke:#00AEEF;stroke-width:0.5;opacity:1.0;" x1="2982.23" x2="2982.23" y1="600.785" y2="720.121"/>
</g>
<g id="Symbols">
<g id="Black-S" transform="matrix(1 0 0 1 2884.57 696) translate(3 -81.25)">
<g clip-path="url(#clip0_146_9448)">
<path d="M77.5686 30.6667H72.9852C70.145 26.4316 66.4135 23.0166 62.2353 20.5941V16.2353C62.2353 7.28315 54.9521 0 46 0C37.0479 0 29.7647 7.28315 29.7647 16.2353V20.5941C25.5937 23.0124 21.8599 26.4244 19.0148 30.6667H14.4314C6.47391 30.6667 0 37.1406 0 45.098C0 46.0943 0.807616 46.902 1.80392 46.902H13.5805C13.0209 57.0672 17.9151 67.6162 23.1966 71.8044C18.2369 77.4667 18.4529 86.1111 23.8513 91.5095C24.5559 92.2138 25.6983 92.2136 26.4026 91.5095L37.7885 80.1237C42.9847 81.4828 48.674 81.5723 54.2118 80.1237L65.5976 91.5095C66.3021 92.2139 67.4447 92.2136 68.1489 91.5095C73.5473 86.1111 73.7633 77.4667 68.8036 71.8044C73.6386 67.9701 79.0114 57.6524 78.4197 46.902H90.1961C91.1924 46.902 92 46.0943 92 45.098C92 37.1404 85.5261 30.6667 77.5686 30.6667ZM47.8039 77.5105V63.0204C50.4346 62.6906 52.8462 61.6514 54.8419 60.0989L65.0828 70.3398C60.4142 74.463 54.4063 77.1012 47.8039 77.5105ZM26.917 70.34L37.1579 60.0991C39.1538 61.6515 41.5652 62.6908 44.1959 63.0205V77.5107C37.5937 77.1012 31.5858 74.463 26.917 70.34ZM17.1953 50.5098H31.6855C32.0153 53.1405 33.0545 55.5521 34.607 57.548L24.3661 67.7889C20.2429 63.1199 17.6045 57.1122 17.1953 50.5098ZM24.3659 29.6229L34.6068 39.8638C33.0543 41.8596 32.0151 44.2713 31.6853 46.902H17.1952C17.6045 40.2994 20.2429 34.2916 24.3659 29.6229ZM44.1961 19.901V34.3912C41.5654 34.721 39.1538 35.7602 37.1581 37.3127L26.9172 27.0716C31.5858 22.9486 37.5937 20.3104 44.1961 19.901ZM65.083 27.0716L54.8421 37.3125C52.8462 35.76 50.4346 34.7208 47.8039 34.391V19.9009C54.4063 20.3104 60.4142 22.9486 65.083 27.0716ZM74.8047 46.902H60.3145C59.9847 44.2713 58.9455 41.8596 57.393 39.8638L67.6339 29.6229C71.7571 34.2916 74.3955 40.2994 74.8047 46.902ZM46 59.5294C40.0319 59.5294 35.1765 54.674 35.1765 48.7059C35.1765 42.7378 40.0319 37.8824 46 37.8824C51.9681 37.8824 56.8235 42.7378 56.8235 48.7059C56.8235 54.674 51.9681 59.5294 46 59.5294ZM67.6341 67.7887L57.3932 57.5478C58.9457 55.5519 59.9849 53.1403 60.3147 50.5096H74.8048C74.3955 57.1122 71.7571 63.1199 67.6341 67.7887ZM33.3725 16.2353C33.3725 9.27252 39.0372 3.60784 46 3.60784C52.9628 3.60784 58.6275 9.27252 58.6275 16.2353V18.7913C50.5863 15.3842 41.4254 15.3792 33.3725 18.7913V16.2353ZM3.75811 43.2941C4.6193 38.1816 9.07769 34.2745 14.4314 34.2745H16.9186C15.5224 37.0765 14.5198 40.1071 13.9829 43.2941H3.75811ZM25.2331 87.5764C22.3659 83.5475 22.5901 77.9814 25.9014 74.1906C28.3293 76.1094 31.037 77.6886 33.952 78.8575L25.2331 87.5764ZM66.7669 87.5764L58.0482 78.8575C60.9632 77.6886 63.6709 76.1094 66.0986 74.1906C69.4097 77.9814 69.6341 83.5475 66.7669 87.5764ZM78.0171 43.2941C77.4801 40.1071 76.4774 37.0765 75.0814 34.2745H77.5686C82.9223 34.2745 87.3805 38.1816 88.2419 43.2941H78.0171Z" fill="#D4E9F7"/>
<path d="M42.3922 12.6464C43.3885 12.6464 44.1962 11.8387 44.1962 10.8425C44.1962 9.84619 43.3885 9.03854 42.3922 9.03854C41.396 9.03854 40.5883 9.84619 40.5883 10.8425C40.5883 11.8387 41.396 12.6464 42.3922 12.6464Z" fill="#D4E9F7"/>
<path d="M49.6078 12.6464C50.6041 12.6464 51.4117 11.8387 51.4117 10.8425C51.4117 9.84619 50.6041 9.03854 49.6078 9.03854C48.6115 9.03854 47.8039 9.84619 47.8039 10.8425C47.8039 11.8387 48.6115 12.6464 49.6078 12.6464Z" fill="#D4E9F7"/>
</g>
<defs>
<clipPath id="clip0_146_9448">
<rect width="92" height="92" fill="white"/>
</clipPath>
</defs>
</g>
<g id="Regular-S" transform="matrix(1 0 0 1 1403.58 696) translate(0 -81.25)">
 <g clip-path="url(#clip0_146_9448)">
<path d="M77.5686 30.6667H72.9852C70.145 26.4316 66.4135 23.0166 62.2353 20.5941V16.2353C62.2353 7.28315 54.9521 0 46 0C37.0479 0 29.7647 7.28315 29.7647 16.2353V20.5941C25.5937 23.0124 21.8599 26.4244 19.0148 30.6667H14.4314C6.47391 30.6667 0 37.1406 0 45.098C0 46.0943 0.807616 46.902 1.80392 46.902H13.5805C13.0209 57.0672 17.9151 67.6162 23.1966 71.8044C18.2369 77.4667 18.4529 86.1111 23.8513 91.5095C24.5559 92.2138 25.6983 92.2136 26.4026 91.5095L37.7885 80.1237C42.9847 81.4828 48.674 81.5723 54.2118 80.1237L65.5976 91.5095C66.3021 92.2139 67.4447 92.2136 68.1489 91.5095C73.5473 86.1111 73.7633 77.4667 68.8036 71.8044C73.6386 67.9701 79.0114 57.6524 78.4197 46.902H90.1961C91.1924 46.902 92 46.0943 92 45.098C92 37.1404 85.5261 30.6667 77.5686 30.6667ZM47.8039 77.5105V63.0204C50.4346 62.6906 52.8462 61.6514 54.8419 60.0989L65.0828 70.3398C60.4142 74.463 54.4063 77.1012 47.8039 77.5105ZM26.917 70.34L37.1579 60.0991C39.1538 61.6515 41.5652 62.6908 44.1959 63.0205V77.5107C37.5937 77.1012 31.5858 74.463 26.917 70.34ZM17.1953 50.5098H31.6855C32.0153 53.1405 33.0545 55.5521 34.607 57.548L24.3661 67.7889C20.2429 63.1199 17.6045 57.1122 17.1953 50.5098ZM24.3659 29.6229L34.6068 39.8638C33.0543 41.8596 32.0151 44.2713 31.6853 46.902H17.1952C17.6045 40.2994 20.2429 34.2916 24.3659 29.6229ZM44.1961 19.901V34.3912C41.5654 34.721 39.1538 35.7602 37.1581 37.3127L26.9172 27.0716C31.5858 22.9486 37.5937 20.3104 44.1961 19.901ZM65.083 27.0716L54.8421 37.3125C52.8462 35.76 50.4346 34.7208 47.8039 34.391V19.9009C54.4063 20.3104 60.4142 22.9486 65.083 27.0716ZM74.8047 46.902H60.3145C59.9847 44.2713 58.9455 41.8596 57.393 39.8638L67.6339 29.6229C71.7571 34.2916 74.3955 40.2994 74.8047 46.902ZM46 59.5294C40.0319 59.5294 35.1765 54.674 35.1765 48.7059C35.1765 42.7378 40.0319 37.8824 46 37.8824C51.9681 37.8824 56.8235 42.7378 56.8235 48.7059C56.8235 54.674 51.9681 59.5294 46 59.5294ZM67.6341 67.7887L57.3932 57.5478C58.9457 55.5519 59.9849 53.1403 60.3147 50.5096H74.8048C74.3955 57.1122 71.7571 63.1199 67.6341 67.7887ZM33.3725 16.2353C33.3725 9.27252 39.0372 3.60784 46 3.60784C52.9628 3.60784 58.6275 9.27252 58.6275 16.2353V18.7913C50.5863 15.3842 41.4254 15.3792 33.3725 18.7913V16.2353ZM3.75811 43.2941C4.6193 38.1816 9.07769 34.2745 14.4314 34.2745H16.9186C15.5224 37.0765 14.5198 40.1071 13.9829 43.2941H3.75811ZM25.2331 87.5764C22.3659 83.5475 22.5901 77.9814 25.9014 74.1906C28.3293 76.1094 31.037 77.6886 33.952 78.8575L25.2331 87.5764ZM66.7669 87.5764L58.0482 78.8575C60.9632 77.6886 63.6709 76.1094 66.0986 74.1906C69.4097 77.9814 69.6341 83.5475 66.7669 87.5764ZM78.0171 43.2941C77.4801 40.1071 76.4774 37.0765 75.0814 34.2745H77.5686C82.9223 34.2745 87.3805 38.1816 88.2419 43.2941H78.0171Z" fill="#D4E9F7"/>
<path d="M42.3922 12.6464C43.3885 12.6464 44.1962 11.8387 44.1962 10.8425C44.1962 9.84619 43.3885 9.03854 42.3922 9.03854C41.396 9.03854 40.5883 9.84619 40.5883 10.8425C40.5883 11.8387 41.396 12.6464 42.3922 12.6464Z" fill="#D4E9F7"/>
<path d="M49.6078 12.6464C50.6041 12.6464 51.4117 11.8387 51.4117 10.8425C51.4117 9.84619 50.6041 9.03854 49.6078 9.03854C48.6115 9.03854 47.8039 9.84619 47.8039 10.8425C47.8039 11.8387 48.6115 12.6464 49.6078 12.6464Z" fill="#D4E9F7"/>
</g>
<defs>
<clipPath id="clip0_146_9448">
<rect width="92" height="92" fill="white"/>
</clipPath>
</defs>
</g>
<g id="Ultralight-S" transform="matrix(1 0 0 1 515.649 696) translate(-2 -81.25)">
 <g clip-path="url(#clip0_146_9448)">
<path d="M77.5686 30.6667H72.9852C70.145 26.4316 66.4135 23.0166 62.2353 20.5941V16.2353C62.2353 7.28315 54.9521 0 46 0C37.0479 0 29.7647 7.28315 29.7647 16.2353V20.5941C25.5937 23.0124 21.8599 26.4244 19.0148 30.6667H14.4314C6.47391 30.6667 0 37.1406 0 45.098C0 46.0943 0.807616 46.902 1.80392 46.902H13.5805C13.0209 57.0672 17.9151 67.6162 23.1966 71.8044C18.2369 77.4667 18.4529 86.1111 23.8513 91.5095C24.5559 92.2138 25.6983 92.2136 26.4026 91.5095L37.7885 80.1237C42.9847 81.4828 48.674 81.5723 54.2118 80.1237L65.5976 91.5095C66.3021 92.2139 67.4447 92.2136 68.1489 91.5095C73.5473 86.1111 73.7633 77.4667 68.8036 71.8044C73.6386 67.9701 79.0114 57.6524 78.4197 46.902H90.1961C91.1924 46.902 92 46.0943 92 45.098C92 37.1404 85.5261 30.6667 77.5686 30.6667ZM47.8039 77.5105V63.0204C50.4346 62.6906 52.8462 61.6514 54.8419 60.0989L65.0828 70.3398C60.4142 74.463 54.4063 77.1012 47.8039 77.5105ZM26.917 70.34L37.1579 60.0991C39.1538 61.6515 41.5652 62.6908 44.1959 63.0205V77.5107C37.5937 77.1012 31.5858 74.463 26.917 70.34ZM17.1953 50.5098H31.6855C32.0153 53.1405 33.0545 55.5521 34.607 57.548L24.3661 67.7889C20.2429 63.1199 17.6045 57.1122 17.1953 50.5098ZM24.3659 29.6229L34.6068 39.8638C33.0543 41.8596 32.0151 44.2713 31.6853 46.902H17.1952C17.6045 40.2994 20.2429 34.2916 24.3659 29.6229ZM44.1961 19.901V34.3912C41.5654 34.721 39.1538 35.7602 37.1581 37.3127L26.9172 27.0716C31.5858 22.9486 37.5937 20.3104 44.1961 19.901ZM65.083 27.0716L54.8421 37.3125C52.8462 35.76 50.4346 34.7208 47.8039 34.391V19.9009C54.4063 20.3104 60.4142 22.9486 65.083 27.0716ZM74.8047 46.902H60.3145C59.9847 44.2713 58.9455 41.8596 57.393 39.8638L67.6339 29.6229C71.7571 34.2916 74.3955 40.2994 74.8047 46.902ZM46 59.5294C40.0319 59.5294 35.1765 54.674 35.1765 48.7059C35.1765 42.7378 40.0319 37.8824 46 37.8824C51.9681 37.8824 56.8235 42.7378 56.8235 48.7059C56.8235 54.674 51.9681 59.5294 46 59.5294ZM67.6341 67.7887L57.3932 57.5478C58.9457 55.5519 59.9849 53.1403 60.3147 50.5096H74.8048C74.3955 57.1122 71.7571 63.1199 67.6341 67.7887ZM33.3725 16.2353C33.3725 9.27252 39.0372 3.60784 46 3.60784C52.9628 3.60784 58.6275 9.27252 58.6275 16.2353V18.7913C50.5863 15.3842 41.4254 15.3792 33.3725 18.7913V16.2353ZM3.75811 43.2941C4.6193 38.1816 9.07769 34.2745 14.4314 34.2745H16.9186C15.5224 37.0765 14.5198 40.1071 13.9829 43.2941H3.75811ZM25.2331 87.5764C22.3659 83.5475 22.5901 77.9814 25.9014 74.1906C28.3293 76.1094 31.037 77.6886 33.952 78.8575L25.2331 87.5764ZM66.7669 87.5764L58.0482 78.8575C60.9632 77.6886 63.6709 76.1094 66.0986 74.1906C69.4097 77.9814 69.6341 83.5475 66.7669 87.5764ZM78.0171 43.2941C77.4801 40.1071 76.4774 37.0765 75.0814 34.2745H77.5686C82.9223 34.2745 87.3805 38.1816 88.2419 43.2941H78.0171Z" fill="#D4E9F7"/>
<path d="M42.3922 12.6464C43.3885 12.6464 44.1962 11.8387 44.1962 10.8425C44.1962 9.84619 43.3885 9.03854 42.3922 9.03854C41.396 9.03854 40.5883 9.84619 40.5883 10.8425C40.5883 11.8387 41.396 12.6464 42.3922 12.6464Z" fill="#D4E9F7"/>
<path d="M49.6078 12.6464C50.6041 12.6464 51.4117 11.8387 51.4117 10.8425C51.4117 9.84619 50.6041 9.03854 49.6078 9.03854C48.6115 9.03854 47.8039 9.84619 47.8039 10.8425C47.8039 11.8387 48.6115 12.6464 49.6078 12.6464Z" fill="#D4E9F7"/>
</g>
<defs>
<clipPath id="clip0_146_9448">
<rect width="92" height="92" fill="white"/>
</clipPath>
</defs>
</g>
</g>
</svg>