<?xml version="1.0" encoding="UTF-8"?>
<!DOCTYPE svg
PUBLIC "-//W3C//DTD SVG 1.1//EN"
     "http://www.w3.org/Graphics/SVG/1.1/DTD/svg11.dtd">
<svg version="1.1" xmlns="http://www.w3.org/2000/svg" xmlns:xlink="http://www.w3.org/1999/xlink" width="3300" height="2200">
<!--glyph: "uni100000.medium", point size: 100.0, font version: "19.0d6e1", template writer version: "123"-->
<style>.SFSymbolsPreviewWireframe {fill:none;opacity:1.0;stroke:black;stroke-width:0.5}
</style>
<g id="Notes">
<rect height="2200" id="artboard" style="fill:white;opacity:1" width="3300" x="0" y="0"/>
<line style="fill:none;stroke:black;opacity:1;stroke-width:0.5;" x1="263" x2="3036" y1="292" y2="292"/>
<text style="stroke:none;fill:black;font-family:sans-serif;font-size:13;font-weight:bold;" transform="matrix(1 0 0 1 263 322)">Weight/Scale Variations</text>
<text style="stroke:none;fill:black;font-family:sans-serif;font-size:13;text-anchor:middle;" transform="matrix(1 0 0 1 559.711 322)">Ultralight</text>
<text style="stroke:none;fill:black;font-family:sans-serif;font-size:13;text-anchor:middle;" transform="matrix(1 0 0 1 856.422 322)">Thin</text>
<text style="stroke:none;fill:black;font-family:sans-serif;font-size:13;text-anchor:middle;" transform="matrix(1 0 0 1 1153.13 322)">Light</text>
<text style="stroke:none;fill:black;font-family:sans-serif;font-size:13;text-anchor:middle;" transform="matrix(1 0 0 1 1449.84 322)">Regular</text>
<text style="stroke:none;fill:black;font-family:sans-serif;font-size:13;text-anchor:middle;" transform="matrix(1 0 0 1 1746.56 322)">Medium</text>
<text style="stroke:none;fill:black;font-family:sans-serif;font-size:13;text-anchor:middle;" transform="matrix(1 0 0 1 2043.27 322)">Semibold</text>
<text style="stroke:none;fill:black;font-family:sans-serif;font-size:13;text-anchor:middle;" transform="matrix(1 0 0 1 2339.98 322)">Bold</text>
<text style="stroke:none;fill:black;font-family:sans-serif;font-size:13;text-anchor:middle;" transform="matrix(1 0 0 1 2636.69 322)">Heavy</text>
<text style="stroke:none;fill:black;font-family:sans-serif;font-size:13;text-anchor:middle;" transform="matrix(1 0 0 1 2933.4 322)">Black</text>
<line style="fill:none;stroke:black;opacity:1;stroke-width:0.5;" x1="263" x2="3036" y1="1903" y2="1903"/>
<g transform="matrix(0.2 0 0 0.2 263 1933)">
 <path d="m46.2402 4.15039c21.5332 0 39.4531-17.8711 39.4531-39.4043s-17.9688-39.4043-39.502-39.4043c-21.4844 0-39.3555 17.8711-39.3555 39.4043s17.9199 39.4043 39.4043 39.4043Zm0-7.42188c-17.7246 0-31.8848-14.209-31.8848-31.9824s14.1113-31.9824 31.8359-31.9824c17.7734 0 32.0312 14.209 32.0312 31.9824s-14.209 31.9824-31.9824 31.9824Zm-17.9688-31.9824c0 2.14844 1.51367 3.61328 3.75977 3.61328h10.498v10.5957c0 2.19727 1.46484 3.71094 3.61328 3.71094 2.24609 0 3.71094-1.51367 3.71094-3.71094v-10.5957h10.5957c2.19727 0 3.71094-1.46484 3.71094-3.61328 0-2.19727-1.51367-3.71094-3.71094-3.71094h-10.5957v-10.5469c0-2.24609-1.46484-3.75977-3.71094-3.75977-2.14844 0-3.61328 1.51367-3.61328 3.75977v10.5469h-10.498c-2.24609 0-3.75977 1.51367-3.75977 3.71094Z"/>
</g>
<g transform="matrix(0.2 0 0 0.2 281.506 1933)">
 <path d="m58.5449 14.5508c27.2461 0 49.8047-22.6074 49.8047-49.8047 0-27.2461-22.6074-49.8047-49.8535-49.8047-27.1973 0-49.7559 22.5586-49.7559 49.8047 0 27.1973 22.6074 49.8047 49.8047 49.8047Zm0-8.30078c-23.0469 0-41.4551-18.457-41.4551-41.5039s18.3594-41.5039 41.4062-41.5039 41.5527 18.457 41.5527 41.5039-18.457 41.5039-41.5039 41.5039Zm-22.6562-41.5039c0 2.39258 1.66016 4.00391 4.15039 4.00391h14.3555v14.4043c0 2.44141 1.66016 4.15039 4.05273 4.15039 2.44141 0 4.15039-1.66016 4.15039-4.15039v-14.4043h14.4043c2.44141 0 4.15039-1.61133 4.15039-4.00391 0-2.44141-1.70898-4.15039-4.15039-4.15039h-14.4043v-14.3555c0-2.49023-1.70898-4.19922-4.15039-4.19922-2.39258 0-4.05273 1.70898-4.05273 4.19922v14.3555h-14.3555c-2.49023 0-4.15039 1.70898-4.15039 4.15039Z"/>
</g>
<g transform="matrix(0.2 0 0 0.2 304.924 1933)">
 <path d="m74.8535 28.3203c34.8145 0 63.623-28.8086 63.623-63.5742 0-34.8145-28.8574-63.623-63.6719-63.623-34.7656 0-63.5254 28.8086-63.5254 63.623 0 34.7656 28.8086 63.5742 63.5742 63.5742Zm0-9.08203c-30.1758 0-54.4434-24.3164-54.4434-54.4922 0-30.2246 24.2188-54.4922 54.3945-54.4922 30.2246 0 54.541 24.2676 54.541 54.4922 0 30.1758-24.2676 54.4922-54.4922 54.4922Zm-28.8574-54.4922c0 2.58789 1.85547 4.39453 4.58984 4.39453h19.7266v19.7754c0 2.68555 1.85547 4.58984 4.44336 4.58984 2.68555 0 4.54102-1.85547 4.54102-4.58984v-19.7754h19.7754c2.68555 0 4.58984-1.80664 4.58984-4.39453 0-2.73438-1.85547-4.58984-4.58984-4.58984h-19.7754v-19.7266c0-2.73438-1.85547-4.63867-4.54102-4.63867-2.58789 0-4.44336 1.9043-4.44336 4.63867v19.7266h-19.7266c-2.73438 0-4.58984 1.85547-4.58984 4.58984Z"/>
</g>
<text style="stroke:none;fill:black;font-family:sans-serif;font-size:13;font-weight:bold;" transform="matrix(1 0 0 1 263 1953)">Design Variations</text>
<text style="stroke:none;fill:black;font-family:sans-serif;font-size:13;" transform="matrix(1 0 0 1 263 1971)">Symbols are supported in up to nine weights and three scales.</text>
<text style="stroke:none;fill:black;font-family:sans-serif;font-size:13;" transform="matrix(1 0 0 1 263 1989)">For optimal layout with text and other symbols, vertically align</text>
<text style="stroke:none;fill:black;font-family:sans-serif;font-size:13;" transform="matrix(1 0 0 1 263 2007)">symbols with the adjacent text.</text>
<line style="fill:none;stroke:#00AEEF;stroke-width:0.5;opacity:1.0;" x1="776" x2="776" y1="1919" y2="1933"/>
<g transform="matrix(0.2 0 0 0.2 776 1933)">
 <path d="m16.5527 0.78125c2.58789 0 3.85742-0.976562 4.78516-3.71094l6.29883-17.2363h28.8086l6.29883 17.2363c0.927734 2.73438 2.19727 3.71094 4.73633 3.71094 2.58789 0 4.24805-1.5625 4.24805-4.00391 0-0.830078-0.146484-1.61133-0.537109-2.63672l-22.9004-60.9863c-1.12305-2.97852-3.125-4.49219-6.25-4.49219-3.02734 0-5.07812 1.46484-6.15234 4.44336l-22.9004 61.084c-0.390625 1.02539-0.537109 1.80664-0.537109 2.63672 0 2.44141 1.5625 3.95508 4.10156 3.95508Zm13.4766-28.3691 11.8652-32.8613h0.244141l11.8652 32.8613Z"/>
</g>
<line style="fill:none;stroke:#00AEEF;stroke-width:0.5;opacity:1.0;" x1="792.836" x2="792.836" y1="1919" y2="1933"/>
<text style="stroke:none;fill:black;font-family:sans-serif;font-size:13;font-weight:bold;" transform="matrix(1 0 0 1 776 1953)">Margins</text>
<text style="stroke:none;fill:black;font-family:sans-serif;font-size:13;" transform="matrix(1 0 0 1 776 1971)">Leading and trailing margins on the left and right side of each symbol</text>
<text style="stroke:none;fill:black;font-family:sans-serif;font-size:13;" transform="matrix(1 0 0 1 776 1989)">can be adjusted by modifying the x-location of the margin guidelines.</text>
<text style="stroke:none;fill:black;font-family:sans-serif;font-size:13;" transform="matrix(1 0 0 1 776 2007)">Modifications are automatically applied proportionally to all</text>
<text style="stroke:none;fill:black;font-family:sans-serif;font-size:13;" transform="matrix(1 0 0 1 776 2025)">scales and weights.</text>
<g transform="matrix(0.2 0 0 0.2 1289 1933)">
 <path d="m14.209 9.32617 8.49609 8.54492c4.29688 4.3457 9.22852 4.05273 13.8672-1.07422l53.4668-58.9355-4.83398-4.88281-53.0762 58.3984c-1.75781 2.00195-3.41797 2.49023-5.76172 0.146484l-5.85938-5.81055c-2.34375-2.29492-1.80664-4.00391 0.195312-5.81055l57.373-54.0039-4.88281-4.83398-57.959 54.4434c-4.93164 4.58984-5.32227 9.47266-1.02539 13.8184Zm32.0801-90.9668c-2.09961 2.05078-2.24609 4.93164-1.07422 6.88477 1.17188 1.80664 3.4668 2.97852 6.68945 2.14844 7.32422-1.70898 14.9414-2.00195 22.0703 2.68555l-2.92969 7.27539c-1.70898 4.15039-0.830078 7.08008 1.85547 9.81445l11.4746 11.5723c2.44141 2.44141 4.49219 2.53906 7.32422 2.05078l5.32227-0.976562 3.32031 3.36914-0.195312 2.7832c-0.195312 2.49023 0.439453 4.39453 2.88086 6.78711l3.80859 3.71094c2.39258 2.39258 5.46875 2.53906 7.8125 0.195312l14.5508-14.5996c2.34375-2.34375 2.24609-5.32227-0.146484-7.71484l-3.85742-3.80859c-2.39258-2.39258-4.24805-3.17383-6.64062-2.97852l-2.88086 0.244141-3.22266-3.17383 1.2207-5.61523c0.634766-2.83203-0.146484-5.0293-3.07617-7.95898l-10.9863-10.9375c-16.6992-16.6016-38.8672-16.2109-53.3203-1.75781Zm7.4707 1.85547c12.1582-8.88672 28.6133-7.37305 39.7461 3.75977l12.1582 12.0605c1.17188 1.17188 1.36719 2.09961 1.02539 3.80859l-1.61133 7.42188 7.51953 7.42188 4.93164-0.292969c1.26953-0.0488281 1.66016 0.0488281 2.63672 1.02539l2.88086 2.88086-12.207 12.207-2.88086-2.88086c-0.976562-0.976562-1.12305-1.36719-1.07422-2.68555l0.341797-4.88281-7.4707-7.42188-7.61719 1.26953c-1.61133 0.341797-2.34375 0.195312-3.56445-0.976562l-10.0098-10.0098c-1.26953-1.17188-1.41602-2.00195-0.634766-3.85742l4.39453-10.4492c-7.8125-7.27539-17.9688-10.4004-28.125-7.42188-0.78125 0.195312-1.07422-0.439453-0.439453-0.976562Z"/>
</g>
<text style="stroke:none;fill:black;font-family:sans-serif;font-size:13;font-weight:bold;" transform="matrix(1 0 0 1 1289 1953)">Exporting</text>
<text style="stroke:none;fill:black;font-family:sans-serif;font-size:13;" transform="matrix(1 0 0 1 1289 1971)">Symbols should be outlined when exporting to ensure the</text>
<text style="stroke:none;fill:black;font-family:sans-serif;font-size:13;" transform="matrix(1 0 0 1 1289 1989)">design is preserved when submitting to Xcode.</text>
<text id="template-version" style="stroke:none;fill:black;font-family:sans-serif;font-size:13;text-anchor:end;" transform="matrix(1 0 0 1 3036 1933)">Template v.5.0</text>
<text style="stroke:none;fill:black;font-family:sans-serif;font-size:13;text-anchor:end;" transform="matrix(1 0 0 1 3036 1951)">Requires Xcode 15 or greater</text>
<text id="descriptive-name" style="stroke:none;fill:black;font-family:sans-serif;font-size:13;text-anchor:end;" transform="matrix(1 0 0 1 3036 1969)">Generated from circle</text>
<text style="stroke:none;fill:black;font-family:sans-serif;font-size:13;text-anchor:end;" transform="matrix(1 0 0 1 3036 1987)">Typeset at 100.0 points</text>
<text style="stroke:none;fill:black;font-family:sans-serif;font-size:13;" transform="matrix(1 0 0 1 263 726)">Small</text>
<text style="stroke:none;fill:black;font-family:sans-serif;font-size:13;" transform="matrix(1 0 0 1 263 1156)">Medium</text>
<text style="stroke:none;fill:black;font-family:sans-serif;font-size:13;" transform="matrix(1 0 0 1 263 1586)">Large</text>
</g>
<g id="Guides">
<g id="H-reference" style="fill:#27AAE1;stroke:none;" transform="matrix(1 0 0 1 339 696)">
 <path d="M0.993654 0L3.63775 0L29.3281-67.1323L30.0303-67.1323L30.0303-70.459L28.1226-70.459ZM11.6885-24.4799L46.9815-24.4799L46.2315-26.7285L12.4385-26.7285ZM55.1196 0L57.7637 0L30.6382-70.459L29.4326-70.459L29.4326-67.1323Z"/>
</g>
<line id="Baseline-S" style="fill:none;stroke:#27AAE1;opacity:1;stroke-width:0.5;" x1="263" x2="3036" y1="696" y2="696"/>
<line id="Capline-S" style="fill:none;stroke:#27AAE1;opacity:1;stroke-width:0.5;" x1="263" x2="3036" y1="625.541" y2="625.541"/>
<g id="H-reference" style="fill:#27AAE1;stroke:none;" transform="matrix(1 0 0 1 339 1126)">
 <path d="M0.993654 0L3.63775 0L29.3281-67.1323L30.0303-67.1323L30.0303-70.459L28.1226-70.459ZM11.6885-24.4799L46.9815-24.4799L46.2315-26.7285L12.4385-26.7285ZM55.1196 0L57.7637 0L30.6382-70.459L29.4326-70.459L29.4326-67.1323Z"/>
</g>
<line id="Baseline-M" style="fill:none;stroke:#27AAE1;opacity:1;stroke-width:0.5;" x1="263" x2="3036" y1="1126" y2="1126"/>
<line id="Capline-M" style="fill:none;stroke:#27AAE1;opacity:1;stroke-width:0.5;" x1="263" x2="3036" y1="1055.54" y2="1055.54"/>
<g id="H-reference" style="fill:#27AAE1;stroke:none;" transform="matrix(1 0 0 1 339 1556)">
 <path d="M0.993654 0L3.63775 0L29.3281-67.1323L30.0303-67.1323L30.0303-70.459L28.1226-70.459ZM11.6885-24.4799L46.9815-24.4799L46.2315-26.7285L12.4385-26.7285ZM55.1196 0L57.7637 0L30.6382-70.459L29.4326-70.459L29.4326-67.1323Z"/>
</g>
<line id="Baseline-L" style="fill:none;stroke:#27AAE1;opacity:1;stroke-width:0.5;" x1="263" x2="3036" y1="1556" y2="1556"/>
<line id="Capline-L" style="fill:none;stroke:#27AAE1;opacity:1;stroke-width:0.5;" x1="263" x2="3036" y1="1485.54" y2="1485.54"/>
<line id="left-margin-Ultralight-S" style="fill:none;stroke:#00AEEF;stroke-width:0.5;opacity:1.0;" x1="515.649" x2="515.649" y1="600.785" y2="720.121"/>
<line id="right-margin-Ultralight-S" style="fill:none;stroke:#00AEEF;stroke-width:0.5;opacity:1.0;" x1="603.773" x2="603.773" y1="600.785" y2="720.121"/>
<line id="left-margin-Regular-S" style="fill:none;stroke:#00AEEF;stroke-width:0.5;opacity:1.0;" x1="1403.58" x2="1403.58" y1="600.785" y2="720.121"/>
<line id="right-margin-Regular-S" style="fill:none;stroke:#00AEEF;stroke-width:0.5;opacity:1.0;" x1="1496.11" x2="1496.11" y1="600.785" y2="720.121"/>
<line id="left-margin-Black-S" style="fill:none;stroke:#00AEEF;stroke-width:0.5;opacity:1.0;" x1="2884.57" x2="2884.57" y1="600.785" y2="720.121"/>
<line id="right-margin-Black-S" style="fill:none;stroke:#00AEEF;stroke-width:0.5;opacity:1.0;" x1="2982.23" x2="2982.23" y1="600.785" y2="720.121"/>
</g>
<g id="Symbols">
<g id="Black-S" transform="matrix(1 0 0 1 2884.57 696) translate(3 -81.25)">
<g clip-path="url(#clip0_146_9484)">
<path d="M92.0266 89.6227L90.1043 85.7782C88.9871 83.5438 86.7363 82.1473 84.2226 82.1473H72.0483C70.5697 76.4298 65.3451 72.2896 59.3319 72.2896C57.9026 72.2896 56.5061 72.5196 55.1589 72.9796C54.0909 71.1724 52.6944 69.6116 51.1172 68.2972V66.49L58.4448 60.789H70.8326C72.7055 60.789 74.3978 59.7375 75.2357 58.0617L81.8074 44.9181C82.3989 43.7352 82.4975 42.4044 82.0703 41.1558C81.6596 39.9071 80.7724 38.8885 79.6059 38.3135C77.1743 37.0977 74.217 38.0835 72.9848 40.515L67.7767 50.9313H66.1995L69.1239 31.9717C69.5346 29.2937 67.6945 26.7636 65.0001 26.3528C63.7022 26.1557 62.4042 26.4679 61.3363 27.2565C60.2684 28.0451 59.5784 29.1787 59.3812 30.4766L56.3911 49.8963L51.1008 54.0036V18.8282L63.5707 16.3309C64.5236 16.1337 65.3944 15.6737 66.0844 14.9837L72.6562 8.41188C73.5927 7.4754 74.102 6.24319 74.102 4.92884C74.102 3.61448 73.5927 2.38227 72.6562 1.44579C70.734 -0.476454 67.6124 -0.476454 65.6901 1.44579L60.1698 6.96609L51.1008 8.77333V4.92884C51.1008 2.21798 48.8828 0 46.1719 0C43.4611 0 41.2431 2.21798 41.2431 4.92884V14.7865H40.4874L39.5344 9.05263C39.3209 7.7547 38.6144 6.60464 37.5301 5.84889C36.4621 5.09313 35.1478 4.78097 33.8663 5.01098C31.1883 5.45458 29.3646 8.00114 29.8082 10.6791L31.4512 20.5368C31.8455 22.9191 33.8991 24.6606 36.3143 24.6606H41.2431V37.8042H29.7425V23.0177C29.7425 20.3068 27.5245 18.0888 24.8137 18.0888C22.1028 18.0888 19.8848 20.3068 19.8848 23.0177V37.8042H16.0403L9.27139 26.9772C7.8256 24.677 4.78614 23.9706 2.48602 25.4164C1.36882 26.1064 0.596634 27.2072 0.300903 28.4887C0.0051732 29.7702 0.218756 31.0845 0.925223 32.2017L9.13995 45.3453C10.0436 46.7911 11.6044 47.6618 13.313 47.6618H41.2431V56.123L37.9572 54.4801V54.2336C37.9572 51.5228 35.7392 49.3048 33.0284 49.3048C30.3175 49.3048 28.0995 51.5228 28.0995 54.2336V57.5195C28.0995 59.3925 29.151 61.0847 30.8268 61.9226L35.92 64.4692C29.8246 65.7343 24.7644 70.0552 22.6285 75.9862C21.7249 75.7069 20.8213 75.5755 19.8848 75.5755C15.6789 75.5755 11.9658 78.2699 10.5857 82.1473H8.13775C5.62405 82.1473 3.37321 83.5438 2.25601 85.7782L0.333762 89.6227C0.070891 90.132 0.10375 90.7399 0.39948 91.2163C0.69521 91.6928 1.22095 91.9885 1.79598 91.9885H90.5151C91.0901 91.9885 91.6158 91.6928 91.9116 91.2163C92.2073 90.7399 92.2401 90.132 91.9773 89.6227H92.0266ZM31.4183 57.5031V54.2172C31.4183 53.3136 32.1576 52.5743 33.0612 52.5743C33.9649 52.5743 34.7042 53.3136 34.7042 54.2172V55.4658C34.7042 56.0902 35.0492 56.6652 35.6078 56.9281L42.1796 60.214C42.6889 60.4604 43.2968 60.444 43.7732 60.1482C44.2497 59.8525 44.5454 59.3268 44.5454 58.7517V46.0025C44.5454 45.0989 43.8061 44.3595 42.9025 44.3595H13.3459C12.7709 44.3595 12.2615 44.0638 11.9494 43.5873L3.73466 30.4438C3.50465 30.0659 3.4225 29.6387 3.52108 29.2116C3.61965 28.7844 3.88253 28.423 4.24397 28.1929C5.01616 27.7165 6.03478 27.9465 6.51124 28.7187L13.7566 40.3179C14.0524 40.7943 14.5781 41.0901 15.1531 41.0901H21.5442C22.4478 41.0901 23.1871 40.3507 23.1871 39.4471V23.0177C23.1871 22.114 23.9265 21.3747 24.8301 21.3747C25.7337 21.3747 26.473 22.114 26.473 23.0177V39.4471C26.473 40.3507 27.2124 41.0901 28.116 41.0901H42.9025C43.8061 41.0901 44.5454 40.3507 44.5454 39.4471V23.0177C44.5454 22.114 43.8061 21.3747 42.9025 21.3747H36.3307C35.5257 21.3747 34.8356 20.7997 34.7042 19.9946L33.0612 10.137C32.9134 9.24978 33.5213 8.39545 34.4085 8.24759C34.8356 8.18187 35.2792 8.28044 35.6242 8.52689C35.9857 8.77333 36.2157 9.16764 36.2978 9.5948L37.4808 16.7088C37.6122 17.4974 38.3022 18.0888 39.1073 18.0888H42.9025C43.8061 18.0888 44.5454 17.3495 44.5454 16.4459V4.94527C44.5454 4.04165 45.2848 3.30232 46.1884 3.30232C47.092 3.30232 47.8313 4.04165 47.8313 4.94527V10.7942C47.8313 11.287 48.0449 11.7471 48.4392 12.0592C48.8171 12.3714 49.3264 12.5028 49.8029 12.4042L61.3199 10.1041C61.6321 10.0384 61.9278 9.89053 62.1578 9.66052L68.0231 3.7952C68.6639 3.15446 69.6989 3.15446 70.3397 3.7952C70.6518 4.10736 70.8161 4.5181 70.8161 4.9617C70.8161 5.40529 70.6518 5.81603 70.3397 6.12819L63.7679 12.7C63.5379 12.93 63.2422 13.0778 62.93 13.1436L49.1457 15.9037C48.3735 16.0516 47.8313 16.7252 47.8313 17.5138V57.3881C47.8313 58.0124 48.1928 58.5874 48.7514 58.8667C49.31 59.146 49.9836 59.0803 50.4765 58.686L58.9212 52.1142C59.2498 51.8514 59.4634 51.4735 59.5291 51.0628L62.6178 31.0024C62.6836 30.5752 62.9136 30.1973 63.275 29.9345C63.6365 29.6716 64.0636 29.573 64.4908 29.6387C65.378 29.7702 66.0023 30.6245 65.8709 31.5117L62.6671 52.3771C62.6014 52.8536 62.7328 53.33 63.045 53.6915C63.3572 54.0529 63.8172 54.2665 64.2936 54.2665H68.7953C69.4196 54.2665 69.9782 53.9215 70.2575 53.3629L75.9257 42.043C76.3364 41.2379 77.3222 40.8929 78.1272 41.3036C78.5215 41.5008 78.8173 41.8294 78.9487 42.2566C79.0801 42.6673 79.0637 43.1109 78.8666 43.5052L72.2948 56.6488C72.0155 57.2074 71.4569 57.5524 70.8326 57.5524H57.8697C57.5083 57.5524 57.1468 57.6674 56.8675 57.8974L48.4721 64.4363C48.0778 64.7485 47.8313 65.2249 47.8313 65.7342V66.145C47.7163 66.0793 47.5849 66.0464 47.4699 65.9971C46.9441 65.7342 46.402 65.5042 45.8434 65.2907C45.6955 65.2414 45.5312 65.1921 45.3833 65.1264C44.759 64.9128 44.1183 64.7321 43.4611 64.5842C43.4282 64.5842 43.4118 64.5678 43.3789 64.5678L32.3055 59.031C31.7469 58.7517 31.4019 58.1931 31.4019 57.5688L31.4183 57.5031ZM4.50684 88.7191L5.24617 87.2568C5.80477 86.1396 6.9384 85.4332 8.18704 85.4332H11.8837C12.6723 85.4332 13.3459 84.891 13.4938 84.1188C14.1181 81.0794 16.8289 78.8614 19.9341 78.8614C20.9527 78.8614 21.9714 79.1243 22.9571 79.6336C23.4007 79.8636 23.9265 79.88 24.3865 79.6829C24.8465 79.4857 25.1915 79.075 25.3065 78.5821C26.9495 71.9774 32.8312 67.3608 39.633 67.3608C40.6024 67.3608 41.5388 67.4922 42.4753 67.6565C42.4917 67.6565 42.5082 67.6729 42.541 67.6729C44.7262 68.1165 46.7306 69.0201 48.5049 70.3674C48.5378 70.4002 48.5871 70.4166 48.6364 70.4331C50.4272 71.8131 51.9223 73.604 52.9573 75.7562C53.3516 76.5777 54.321 76.9227 55.1424 76.5284C56.4732 75.8877 57.9026 75.5755 59.3484 75.5755C64.2115 75.5755 68.401 79.2064 69.091 84.0202C69.206 84.8253 69.8961 85.4332 70.7176 85.4332H84.2226C85.4712 85.4332 86.6048 86.1232 87.1634 87.2568L87.9028 88.7191H4.50684Z" fill="#D4E9F7"/>
<path d="M75.7778 72.2896C75.7778 75.9205 78.7186 78.8613 82.3496 78.8613C85.9805 78.8613 88.9213 75.9205 88.9213 72.2896C88.9213 68.6586 85.9805 65.7178 82.3496 65.7178C78.7186 65.7178 75.7778 68.6586 75.7778 72.2896ZM85.6354 72.2896C85.6354 74.0968 84.1568 75.5754 82.3496 75.5754C80.5423 75.5754 79.0637 74.0968 79.0637 72.2896C79.0637 70.4823 80.5423 69.0037 82.3496 69.0037C84.1568 69.0037 85.6354 70.4823 85.6354 72.2896Z" fill="#D4E9F7"/>
<path d="M80.7068 55.8602C80.7068 58.571 82.9248 60.789 85.6356 60.789C88.3465 60.789 90.5645 58.571 90.5645 55.8602C90.5645 53.1493 88.3465 50.9313 85.6356 50.9313C82.9248 50.9313 80.7068 53.1493 80.7068 55.8602ZM85.6356 54.2172C86.5392 54.2172 87.2786 54.9566 87.2786 55.8602C87.2786 56.7638 86.5392 57.5031 85.6356 57.5031C84.732 57.5031 83.9927 56.7638 83.9927 55.8602C83.9927 54.9566 84.732 54.2172 85.6356 54.2172Z" fill="#D4E9F7"/>
<path d="M5.1311 18.0724C5.1311 21.7033 8.07198 24.6441 11.7029 24.6441C15.3338 24.6441 18.2747 21.7033 18.2747 18.0724C18.2747 14.4415 15.3338 11.5006 11.7029 11.5006C8.07198 11.5006 5.1311 14.4415 5.1311 18.0724ZM11.7029 14.7865C13.5101 14.7865 14.9888 16.2651 14.9888 18.0724C14.9888 19.8796 13.5101 21.3583 11.7029 21.3583C9.89565 21.3583 8.41699 19.8796 8.41699 18.0724C8.41699 16.2651 9.89565 14.7865 11.7029 14.7865Z" fill="#D4E9F7"/>
<path d="M5.13117 9.85767C7.84203 9.85767 10.06 7.6397 10.06 4.92884C10.06 2.21798 7.84203 0 5.13117 0C2.42031 0 0.202332 2.21798 0.202332 4.92884C0.202332 7.6397 2.42031 9.85767 5.13117 9.85767ZM5.13117 3.28589C6.03479 3.28589 6.77411 4.02522 6.77411 4.92884C6.77411 5.83246 6.03479 6.57178 5.13117 6.57178C4.22755 6.57178 3.48822 5.83246 3.48822 4.92884C3.48822 4.02522 4.22755 3.28589 5.13117 3.28589Z" fill="#D4E9F7"/>
<path d="M33.0613 78.8614H29.7754V82.1473H33.0613V78.8614Z" fill="#D4E9F7"/>
<path d="M46.2047 82.1472H42.9188V85.4331H46.2047V82.1472Z" fill="#D4E9F7"/>
<path d="M60.9834 79.8278L58.6599 82.1512L60.9834 84.4747L63.3069 82.1512L60.9834 79.8278Z" fill="#D4E9F7"/>
<path d="M19.9253 81.4621L17.6018 83.7856L19.9253 86.1091L22.2488 83.7856L19.9253 81.4621Z" fill="#D4E9F7"/>
<path d="M42.9213 71.601L40.5978 73.9244L42.9213 76.2479L45.2448 73.9244L42.9213 71.601Z" fill="#D4E9F7"/>
</g>
<defs>
<clipPath id="clip0_146_9484">
<rect width="92" height="92" fill="white" transform="translate(0.155518)"/>
</clipPath>
</defs>
</g>
<g id="Regular-S" transform="matrix(1 0 0 1 1403.58 696) translate(0 -81.25)">
 <g clip-path="url(#clip0_146_9484)">
<path d="M92.0266 89.6227L90.1043 85.7782C88.9871 83.5438 86.7363 82.1473 84.2226 82.1473H72.0483C70.5697 76.4298 65.3451 72.2896 59.3319 72.2896C57.9026 72.2896 56.5061 72.5196 55.1589 72.9796C54.0909 71.1724 52.6944 69.6116 51.1172 68.2972V66.49L58.4448 60.789H70.8326C72.7055 60.789 74.3978 59.7375 75.2357 58.0617L81.8074 44.9181C82.3989 43.7352 82.4975 42.4044 82.0703 41.1558C81.6596 39.9071 80.7724 38.8885 79.6059 38.3135C77.1743 37.0977 74.217 38.0835 72.9848 40.515L67.7767 50.9313H66.1995L69.1239 31.9717C69.5346 29.2937 67.6945 26.7636 65.0001 26.3528C63.7022 26.1557 62.4042 26.4679 61.3363 27.2565C60.2684 28.0451 59.5784 29.1787 59.3812 30.4766L56.3911 49.8963L51.1008 54.0036V18.8282L63.5707 16.3309C64.5236 16.1337 65.3944 15.6737 66.0844 14.9837L72.6562 8.41188C73.5927 7.4754 74.102 6.24319 74.102 4.92884C74.102 3.61448 73.5927 2.38227 72.6562 1.44579C70.734 -0.476454 67.6124 -0.476454 65.6901 1.44579L60.1698 6.96609L51.1008 8.77333V4.92884C51.1008 2.21798 48.8828 0 46.1719 0C43.4611 0 41.2431 2.21798 41.2431 4.92884V14.7865H40.4874L39.5344 9.05263C39.3209 7.7547 38.6144 6.60464 37.5301 5.84889C36.4621 5.09313 35.1478 4.78097 33.8663 5.01098C31.1883 5.45458 29.3646 8.00114 29.8082 10.6791L31.4512 20.5368C31.8455 22.9191 33.8991 24.6606 36.3143 24.6606H41.2431V37.8042H29.7425V23.0177C29.7425 20.3068 27.5245 18.0888 24.8137 18.0888C22.1028 18.0888 19.8848 20.3068 19.8848 23.0177V37.8042H16.0403L9.27139 26.9772C7.8256 24.677 4.78614 23.9706 2.48602 25.4164C1.36882 26.1064 0.596634 27.2072 0.300903 28.4887C0.0051732 29.7702 0.218756 31.0845 0.925223 32.2017L9.13995 45.3453C10.0436 46.7911 11.6044 47.6618 13.313 47.6618H41.2431V56.123L37.9572 54.4801V54.2336C37.9572 51.5228 35.7392 49.3048 33.0284 49.3048C30.3175 49.3048 28.0995 51.5228 28.0995 54.2336V57.5195C28.0995 59.3925 29.151 61.0847 30.8268 61.9226L35.92 64.4692C29.8246 65.7343 24.7644 70.0552 22.6285 75.9862C21.7249 75.7069 20.8213 75.5755 19.8848 75.5755C15.6789 75.5755 11.9658 78.2699 10.5857 82.1473H8.13775C5.62405 82.1473 3.37321 83.5438 2.25601 85.7782L0.333762 89.6227C0.070891 90.132 0.10375 90.7399 0.39948 91.2163C0.69521 91.6928 1.22095 91.9885 1.79598 91.9885H90.5151C91.0901 91.9885 91.6158 91.6928 91.9116 91.2163C92.2073 90.7399 92.2401 90.132 91.9773 89.6227H92.0266ZM31.4183 57.5031V54.2172C31.4183 53.3136 32.1576 52.5743 33.0612 52.5743C33.9649 52.5743 34.7042 53.3136 34.7042 54.2172V55.4658C34.7042 56.0902 35.0492 56.6652 35.6078 56.9281L42.1796 60.214C42.6889 60.4604 43.2968 60.444 43.7732 60.1482C44.2497 59.8525 44.5454 59.3268 44.5454 58.7517V46.0025C44.5454 45.0989 43.8061 44.3595 42.9025 44.3595H13.3459C12.7709 44.3595 12.2615 44.0638 11.9494 43.5873L3.73466 30.4438C3.50465 30.0659 3.4225 29.6387 3.52108 29.2116C3.61965 28.7844 3.88253 28.423 4.24397 28.1929C5.01616 27.7165 6.03478 27.9465 6.51124 28.7187L13.7566 40.3179C14.0524 40.7943 14.5781 41.0901 15.1531 41.0901H21.5442C22.4478 41.0901 23.1871 40.3507 23.1871 39.4471V23.0177C23.1871 22.114 23.9265 21.3747 24.8301 21.3747C25.7337 21.3747 26.473 22.114 26.473 23.0177V39.4471C26.473 40.3507 27.2124 41.0901 28.116 41.0901H42.9025C43.8061 41.0901 44.5454 40.3507 44.5454 39.4471V23.0177C44.5454 22.114 43.8061 21.3747 42.9025 21.3747H36.3307C35.5257 21.3747 34.8356 20.7997 34.7042 19.9946L33.0612 10.137C32.9134 9.24978 33.5213 8.39545 34.4085 8.24759C34.8356 8.18187 35.2792 8.28044 35.6242 8.52689C35.9857 8.77333 36.2157 9.16764 36.2978 9.5948L37.4808 16.7088C37.6122 17.4974 38.3022 18.0888 39.1073 18.0888H42.9025C43.8061 18.0888 44.5454 17.3495 44.5454 16.4459V4.94527C44.5454 4.04165 45.2848 3.30232 46.1884 3.30232C47.092 3.30232 47.8313 4.04165 47.8313 4.94527V10.7942C47.8313 11.287 48.0449 11.7471 48.4392 12.0592C48.8171 12.3714 49.3264 12.5028 49.8029 12.4042L61.3199 10.1041C61.6321 10.0384 61.9278 9.89053 62.1578 9.66052L68.0231 3.7952C68.6639 3.15446 69.6989 3.15446 70.3397 3.7952C70.6518 4.10736 70.8161 4.5181 70.8161 4.9617C70.8161 5.40529 70.6518 5.81603 70.3397 6.12819L63.7679 12.7C63.5379 12.93 63.2422 13.0778 62.93 13.1436L49.1457 15.9037C48.3735 16.0516 47.8313 16.7252 47.8313 17.5138V57.3881C47.8313 58.0124 48.1928 58.5874 48.7514 58.8667C49.31 59.146 49.9836 59.0803 50.4765 58.686L58.9212 52.1142C59.2498 51.8514 59.4634 51.4735 59.5291 51.0628L62.6178 31.0024C62.6836 30.5752 62.9136 30.1973 63.275 29.9345C63.6365 29.6716 64.0636 29.573 64.4908 29.6387C65.378 29.7702 66.0023 30.6245 65.8709 31.5117L62.6671 52.3771C62.6014 52.8536 62.7328 53.33 63.045 53.6915C63.3572 54.0529 63.8172 54.2665 64.2936 54.2665H68.7953C69.4196 54.2665 69.9782 53.9215 70.2575 53.3629L75.9257 42.043C76.3364 41.2379 77.3222 40.8929 78.1272 41.3036C78.5215 41.5008 78.8173 41.8294 78.9487 42.2566C79.0801 42.6673 79.0637 43.1109 78.8666 43.5052L72.2948 56.6488C72.0155 57.2074 71.4569 57.5524 70.8326 57.5524H57.8697C57.5083 57.5524 57.1468 57.6674 56.8675 57.8974L48.4721 64.4363C48.0778 64.7485 47.8313 65.2249 47.8313 65.7342V66.145C47.7163 66.0793 47.5849 66.0464 47.4699 65.9971C46.9441 65.7342 46.402 65.5042 45.8434 65.2907C45.6955 65.2414 45.5312 65.1921 45.3833 65.1264C44.759 64.9128 44.1183 64.7321 43.4611 64.5842C43.4282 64.5842 43.4118 64.5678 43.3789 64.5678L32.3055 59.031C31.7469 58.7517 31.4019 58.1931 31.4019 57.5688L31.4183 57.5031ZM4.50684 88.7191L5.24617 87.2568C5.80477 86.1396 6.9384 85.4332 8.18704 85.4332H11.8837C12.6723 85.4332 13.3459 84.891 13.4938 84.1188C14.1181 81.0794 16.8289 78.8614 19.9341 78.8614C20.9527 78.8614 21.9714 79.1243 22.9571 79.6336C23.4007 79.8636 23.9265 79.88 24.3865 79.6829C24.8465 79.4857 25.1915 79.075 25.3065 78.5821C26.9495 71.9774 32.8312 67.3608 39.633 67.3608C40.6024 67.3608 41.5388 67.4922 42.4753 67.6565C42.4917 67.6565 42.5082 67.6729 42.541 67.6729C44.7262 68.1165 46.7306 69.0201 48.5049 70.3674C48.5378 70.4002 48.5871 70.4166 48.6364 70.4331C50.4272 71.8131 51.9223 73.604 52.9573 75.7562C53.3516 76.5777 54.321 76.9227 55.1424 76.5284C56.4732 75.8877 57.9026 75.5755 59.3484 75.5755C64.2115 75.5755 68.401 79.2064 69.091 84.0202C69.206 84.8253 69.8961 85.4332 70.7176 85.4332H84.2226C85.4712 85.4332 86.6048 86.1232 87.1634 87.2568L87.9028 88.7191H4.50684Z" fill="#D4E9F7"/>
<path d="M75.7778 72.2896C75.7778 75.9205 78.7186 78.8613 82.3496 78.8613C85.9805 78.8613 88.9213 75.9205 88.9213 72.2896C88.9213 68.6586 85.9805 65.7178 82.3496 65.7178C78.7186 65.7178 75.7778 68.6586 75.7778 72.2896ZM85.6354 72.2896C85.6354 74.0968 84.1568 75.5754 82.3496 75.5754C80.5423 75.5754 79.0637 74.0968 79.0637 72.2896C79.0637 70.4823 80.5423 69.0037 82.3496 69.0037C84.1568 69.0037 85.6354 70.4823 85.6354 72.2896Z" fill="#D4E9F7"/>
<path d="M80.7068 55.8602C80.7068 58.571 82.9248 60.789 85.6356 60.789C88.3465 60.789 90.5645 58.571 90.5645 55.8602C90.5645 53.1493 88.3465 50.9313 85.6356 50.9313C82.9248 50.9313 80.7068 53.1493 80.7068 55.8602ZM85.6356 54.2172C86.5392 54.2172 87.2786 54.9566 87.2786 55.8602C87.2786 56.7638 86.5392 57.5031 85.6356 57.5031C84.732 57.5031 83.9927 56.7638 83.9927 55.8602C83.9927 54.9566 84.732 54.2172 85.6356 54.2172Z" fill="#D4E9F7"/>
<path d="M5.1311 18.0724C5.1311 21.7033 8.07198 24.6441 11.7029 24.6441C15.3338 24.6441 18.2747 21.7033 18.2747 18.0724C18.2747 14.4415 15.3338 11.5006 11.7029 11.5006C8.07198 11.5006 5.1311 14.4415 5.1311 18.0724ZM11.7029 14.7865C13.5101 14.7865 14.9888 16.2651 14.9888 18.0724C14.9888 19.8796 13.5101 21.3583 11.7029 21.3583C9.89565 21.3583 8.41699 19.8796 8.41699 18.0724C8.41699 16.2651 9.89565 14.7865 11.7029 14.7865Z" fill="#D4E9F7"/>
<path d="M5.13117 9.85767C7.84203 9.85767 10.06 7.6397 10.06 4.92884C10.06 2.21798 7.84203 0 5.13117 0C2.42031 0 0.202332 2.21798 0.202332 4.92884C0.202332 7.6397 2.42031 9.85767 5.13117 9.85767ZM5.13117 3.28589C6.03479 3.28589 6.77411 4.02522 6.77411 4.92884C6.77411 5.83246 6.03479 6.57178 5.13117 6.57178C4.22755 6.57178 3.48822 5.83246 3.48822 4.92884C3.48822 4.02522 4.22755 3.28589 5.13117 3.28589Z" fill="#D4E9F7"/>
<path d="M33.0613 78.8614H29.7754V82.1473H33.0613V78.8614Z" fill="#D4E9F7"/>
<path d="M46.2047 82.1472H42.9188V85.4331H46.2047V82.1472Z" fill="#D4E9F7"/>
<path d="M60.9834 79.8278L58.6599 82.1512L60.9834 84.4747L63.3069 82.1512L60.9834 79.8278Z" fill="#D4E9F7"/>
<path d="M19.9253 81.4621L17.6018 83.7856L19.9253 86.1091L22.2488 83.7856L19.9253 81.4621Z" fill="#D4E9F7"/>
<path d="M42.9213 71.601L40.5978 73.9244L42.9213 76.2479L45.2448 73.9244L42.9213 71.601Z" fill="#D4E9F7"/>
</g>
<defs>
<clipPath id="clip0_146_9484">
<rect width="92" height="92" fill="white" transform="translate(0.155518)"/>
</clipPath>
</defs>
</g>
<g id="Ultralight-S" transform="matrix(1 0 0 1 515.649 696) translate(-2 -81.25)">
 <g clip-path="url(#clip0_146_9484)">
<path d="M92.0266 89.6227L90.1043 85.7782C88.9871 83.5438 86.7363 82.1473 84.2226 82.1473H72.0483C70.5697 76.4298 65.3451 72.2896 59.3319 72.2896C57.9026 72.2896 56.5061 72.5196 55.1589 72.9796C54.0909 71.1724 52.6944 69.6116 51.1172 68.2972V66.49L58.4448 60.789H70.8326C72.7055 60.789 74.3978 59.7375 75.2357 58.0617L81.8074 44.9181C82.3989 43.7352 82.4975 42.4044 82.0703 41.1558C81.6596 39.9071 80.7724 38.8885 79.6059 38.3135C77.1743 37.0977 74.217 38.0835 72.9848 40.515L67.7767 50.9313H66.1995L69.1239 31.9717C69.5346 29.2937 67.6945 26.7636 65.0001 26.3528C63.7022 26.1557 62.4042 26.4679 61.3363 27.2565C60.2684 28.0451 59.5784 29.1787 59.3812 30.4766L56.3911 49.8963L51.1008 54.0036V18.8282L63.5707 16.3309C64.5236 16.1337 65.3944 15.6737 66.0844 14.9837L72.6562 8.41188C73.5927 7.4754 74.102 6.24319 74.102 4.92884C74.102 3.61448 73.5927 2.38227 72.6562 1.44579C70.734 -0.476454 67.6124 -0.476454 65.6901 1.44579L60.1698 6.96609L51.1008 8.77333V4.92884C51.1008 2.21798 48.8828 0 46.1719 0C43.4611 0 41.2431 2.21798 41.2431 4.92884V14.7865H40.4874L39.5344 9.05263C39.3209 7.7547 38.6144 6.60464 37.5301 5.84889C36.4621 5.09313 35.1478 4.78097 33.8663 5.01098C31.1883 5.45458 29.3646 8.00114 29.8082 10.6791L31.4512 20.5368C31.8455 22.9191 33.8991 24.6606 36.3143 24.6606H41.2431V37.8042H29.7425V23.0177C29.7425 20.3068 27.5245 18.0888 24.8137 18.0888C22.1028 18.0888 19.8848 20.3068 19.8848 23.0177V37.8042H16.0403L9.27139 26.9772C7.8256 24.677 4.78614 23.9706 2.48602 25.4164C1.36882 26.1064 0.596634 27.2072 0.300903 28.4887C0.0051732 29.7702 0.218756 31.0845 0.925223 32.2017L9.13995 45.3453C10.0436 46.7911 11.6044 47.6618 13.313 47.6618H41.2431V56.123L37.9572 54.4801V54.2336C37.9572 51.5228 35.7392 49.3048 33.0284 49.3048C30.3175 49.3048 28.0995 51.5228 28.0995 54.2336V57.5195C28.0995 59.3925 29.151 61.0847 30.8268 61.9226L35.92 64.4692C29.8246 65.7343 24.7644 70.0552 22.6285 75.9862C21.7249 75.7069 20.8213 75.5755 19.8848 75.5755C15.6789 75.5755 11.9658 78.2699 10.5857 82.1473H8.13775C5.62405 82.1473 3.37321 83.5438 2.25601 85.7782L0.333762 89.6227C0.070891 90.132 0.10375 90.7399 0.39948 91.2163C0.69521 91.6928 1.22095 91.9885 1.79598 91.9885H90.5151C91.0901 91.9885 91.6158 91.6928 91.9116 91.2163C92.2073 90.7399 92.2401 90.132 91.9773 89.6227H92.0266ZM31.4183 57.5031V54.2172C31.4183 53.3136 32.1576 52.5743 33.0612 52.5743C33.9649 52.5743 34.7042 53.3136 34.7042 54.2172V55.4658C34.7042 56.0902 35.0492 56.6652 35.6078 56.9281L42.1796 60.214C42.6889 60.4604 43.2968 60.444 43.7732 60.1482C44.2497 59.8525 44.5454 59.3268 44.5454 58.7517V46.0025C44.5454 45.0989 43.8061 44.3595 42.9025 44.3595H13.3459C12.7709 44.3595 12.2615 44.0638 11.9494 43.5873L3.73466 30.4438C3.50465 30.0659 3.4225 29.6387 3.52108 29.2116C3.61965 28.7844 3.88253 28.423 4.24397 28.1929C5.01616 27.7165 6.03478 27.9465 6.51124 28.7187L13.7566 40.3179C14.0524 40.7943 14.5781 41.0901 15.1531 41.0901H21.5442C22.4478 41.0901 23.1871 40.3507 23.1871 39.4471V23.0177C23.1871 22.114 23.9265 21.3747 24.8301 21.3747C25.7337 21.3747 26.473 22.114 26.473 23.0177V39.4471C26.473 40.3507 27.2124 41.0901 28.116 41.0901H42.9025C43.8061 41.0901 44.5454 40.3507 44.5454 39.4471V23.0177C44.5454 22.114 43.8061 21.3747 42.9025 21.3747H36.3307C35.5257 21.3747 34.8356 20.7997 34.7042 19.9946L33.0612 10.137C32.9134 9.24978 33.5213 8.39545 34.4085 8.24759C34.8356 8.18187 35.2792 8.28044 35.6242 8.52689C35.9857 8.77333 36.2157 9.16764 36.2978 9.5948L37.4808 16.7088C37.6122 17.4974 38.3022 18.0888 39.1073 18.0888H42.9025C43.8061 18.0888 44.5454 17.3495 44.5454 16.4459V4.94527C44.5454 4.04165 45.2848 3.30232 46.1884 3.30232C47.092 3.30232 47.8313 4.04165 47.8313 4.94527V10.7942C47.8313 11.287 48.0449 11.7471 48.4392 12.0592C48.8171 12.3714 49.3264 12.5028 49.8029 12.4042L61.3199 10.1041C61.6321 10.0384 61.9278 9.89053 62.1578 9.66052L68.0231 3.7952C68.6639 3.15446 69.6989 3.15446 70.3397 3.7952C70.6518 4.10736 70.8161 4.5181 70.8161 4.9617C70.8161 5.40529 70.6518 5.81603 70.3397 6.12819L63.7679 12.7C63.5379 12.93 63.2422 13.0778 62.93 13.1436L49.1457 15.9037C48.3735 16.0516 47.8313 16.7252 47.8313 17.5138V57.3881C47.8313 58.0124 48.1928 58.5874 48.7514 58.8667C49.31 59.146 49.9836 59.0803 50.4765 58.686L58.9212 52.1142C59.2498 51.8514 59.4634 51.4735 59.5291 51.0628L62.6178 31.0024C62.6836 30.5752 62.9136 30.1973 63.275 29.9345C63.6365 29.6716 64.0636 29.573 64.4908 29.6387C65.378 29.7702 66.0023 30.6245 65.8709 31.5117L62.6671 52.3771C62.6014 52.8536 62.7328 53.33 63.045 53.6915C63.3572 54.0529 63.8172 54.2665 64.2936 54.2665H68.7953C69.4196 54.2665 69.9782 53.9215 70.2575 53.3629L75.9257 42.043C76.3364 41.2379 77.3222 40.8929 78.1272 41.3036C78.5215 41.5008 78.8173 41.8294 78.9487 42.2566C79.0801 42.6673 79.0637 43.1109 78.8666 43.5052L72.2948 56.6488C72.0155 57.2074 71.4569 57.5524 70.8326 57.5524H57.8697C57.5083 57.5524 57.1468 57.6674 56.8675 57.8974L48.4721 64.4363C48.0778 64.7485 47.8313 65.2249 47.8313 65.7342V66.145C47.7163 66.0793 47.5849 66.0464 47.4699 65.9971C46.9441 65.7342 46.402 65.5042 45.8434 65.2907C45.6955 65.2414 45.5312 65.1921 45.3833 65.1264C44.759 64.9128 44.1183 64.7321 43.4611 64.5842C43.4282 64.5842 43.4118 64.5678 43.3789 64.5678L32.3055 59.031C31.7469 58.7517 31.4019 58.1931 31.4019 57.5688L31.4183 57.5031ZM4.50684 88.7191L5.24617 87.2568C5.80477 86.1396 6.9384 85.4332 8.18704 85.4332H11.8837C12.6723 85.4332 13.3459 84.891 13.4938 84.1188C14.1181 81.0794 16.8289 78.8614 19.9341 78.8614C20.9527 78.8614 21.9714 79.1243 22.9571 79.6336C23.4007 79.8636 23.9265 79.88 24.3865 79.6829C24.8465 79.4857 25.1915 79.075 25.3065 78.5821C26.9495 71.9774 32.8312 67.3608 39.633 67.3608C40.6024 67.3608 41.5388 67.4922 42.4753 67.6565C42.4917 67.6565 42.5082 67.6729 42.541 67.6729C44.7262 68.1165 46.7306 69.0201 48.5049 70.3674C48.5378 70.4002 48.5871 70.4166 48.6364 70.4331C50.4272 71.8131 51.9223 73.604 52.9573 75.7562C53.3516 76.5777 54.321 76.9227 55.1424 76.5284C56.4732 75.8877 57.9026 75.5755 59.3484 75.5755C64.2115 75.5755 68.401 79.2064 69.091 84.0202C69.206 84.8253 69.8961 85.4332 70.7176 85.4332H84.2226C85.4712 85.4332 86.6048 86.1232 87.1634 87.2568L87.9028 88.7191H4.50684Z" fill="#D4E9F7"/>
<path d="M75.7778 72.2896C75.7778 75.9205 78.7186 78.8613 82.3496 78.8613C85.9805 78.8613 88.9213 75.9205 88.9213 72.2896C88.9213 68.6586 85.9805 65.7178 82.3496 65.7178C78.7186 65.7178 75.7778 68.6586 75.7778 72.2896ZM85.6354 72.2896C85.6354 74.0968 84.1568 75.5754 82.3496 75.5754C80.5423 75.5754 79.0637 74.0968 79.0637 72.2896C79.0637 70.4823 80.5423 69.0037 82.3496 69.0037C84.1568 69.0037 85.6354 70.4823 85.6354 72.2896Z" fill="#D4E9F7"/>
<path d="M80.7068 55.8602C80.7068 58.571 82.9248 60.789 85.6356 60.789C88.3465 60.789 90.5645 58.571 90.5645 55.8602C90.5645 53.1493 88.3465 50.9313 85.6356 50.9313C82.9248 50.9313 80.7068 53.1493 80.7068 55.8602ZM85.6356 54.2172C86.5392 54.2172 87.2786 54.9566 87.2786 55.8602C87.2786 56.7638 86.5392 57.5031 85.6356 57.5031C84.732 57.5031 83.9927 56.7638 83.9927 55.8602C83.9927 54.9566 84.732 54.2172 85.6356 54.2172Z" fill="#D4E9F7"/>
<path d="M5.1311 18.0724C5.1311 21.7033 8.07198 24.6441 11.7029 24.6441C15.3338 24.6441 18.2747 21.7033 18.2747 18.0724C18.2747 14.4415 15.3338 11.5006 11.7029 11.5006C8.07198 11.5006 5.1311 14.4415 5.1311 18.0724ZM11.7029 14.7865C13.5101 14.7865 14.9888 16.2651 14.9888 18.0724C14.9888 19.8796 13.5101 21.3583 11.7029 21.3583C9.89565 21.3583 8.41699 19.8796 8.41699 18.0724C8.41699 16.2651 9.89565 14.7865 11.7029 14.7865Z" fill="#D4E9F7"/>
<path d="M5.13117 9.85767C7.84203 9.85767 10.06 7.6397 10.06 4.92884C10.06 2.21798 7.84203 0 5.13117 0C2.42031 0 0.202332 2.21798 0.202332 4.92884C0.202332 7.6397 2.42031 9.85767 5.13117 9.85767ZM5.13117 3.28589C6.03479 3.28589 6.77411 4.02522 6.77411 4.92884C6.77411 5.83246 6.03479 6.57178 5.13117 6.57178C4.22755 6.57178 3.48822 5.83246 3.48822 4.92884C3.48822 4.02522 4.22755 3.28589 5.13117 3.28589Z" fill="#D4E9F7"/>
<path d="M33.0613 78.8614H29.7754V82.1473H33.0613V78.8614Z" fill="#D4E9F7"/>
<path d="M46.2047 82.1472H42.9188V85.4331H46.2047V82.1472Z" fill="#D4E9F7"/>
<path d="M60.9834 79.8278L58.6599 82.1512L60.9834 84.4747L63.3069 82.1512L60.9834 79.8278Z" fill="#D4E9F7"/>
<path d="M19.9253 81.4621L17.6018 83.7856L19.9253 86.1091L22.2488 83.7856L19.9253 81.4621Z" fill="#D4E9F7"/>
<path d="M42.9213 71.601L40.5978 73.9244L42.9213 76.2479L45.2448 73.9244L42.9213 71.601Z" fill="#D4E9F7"/>
</g>
<defs>
<clipPath id="clip0_146_9484">
<rect width="92" height="92" fill="white" transform="translate(0.155518)"/>
</clipPath>
</defs>
</g>
</g>
</svg>